<?xml version="1.0" standalone="no"?>
<!DOCTYPE svg PUBLIC "-//W3C//DTD SVG 20010904//EN"
 "http://www.w3.org/TR/2001/REC-SVG-20010904/DTD/svg10.dtd">
<svg version="1.0" xmlns="http://www.w3.org/2000/svg"
 width="1370.000000pt" height="1370.000000pt" viewBox="0 0 1370.000000 1370.000000"
 preserveAspectRatio="xMidYMid meet">
<metadata>
Created by potrace 1.11, written by Peter Selinger 2001-2013
</metadata>
<g transform="translate(0.000000,1370.000000) scale(0.100000,-0.100000)"
fill="#000000" stroke="none">
<path d="M5623 8703 c-35 -7 -27 -20 10 -18 17 1 41 -2 52 -6 12 -4 25 -1 33
7 7 8 11 14 10 15 -14 4 -88 5 -105 2z"/>
<path d="M5750 8696 c0 -9 5 -16 10 -16 6 0 10 4 10 9 0 6 -4 13 -10 16 -5 3
-10 -1 -10 -9z"/>
<path d="M5583 8658 c1 -7 -7 -13 -18 -13 -35 -1 -124 -28 -119 -37 3 -4 -3
-8 -13 -8 -15 0 -16 -2 -3 -10 11 -7 0 -10 -38 -10 -29 0 -51 3 -49 8 3 4 -1
13 -9 19 -8 8 -15 9 -19 3 -3 -6 0 -10 7 -10 7 0 4 -6 -7 -12 -11 -7 -40 -11
-65 -11 -25 1 -34 -1 -20 -4 46 -9 46 -23 0 -25 -25 0 -49 -2 -55 -3 -5 -1
-37 -5 -70 -9 -32 -4 -68 -10 -80 -12 -11 -3 -54 -7 -95 -10 -155 -10 -306
-23 -350 -31 -53 -9 -61 -10 -120 -17 -30 -4 -93 -14 -140 -23 -47 -9 -116
-17 -155 -19 -115 -4 -258 -14 -287 -19 -16 -3 -28 -1 -28 4 0 6 -17 3 -37 -5
-21 -9 -49 -13 -67 -10 -22 4 -27 3 -16 -4 13 -8 13 -10 -2 -10 -9 0 -18 5
-20 11 -2 5 -11 7 -21 4 -9 -4 -15 -10 -13 -14 2 -3 -7 -7 -20 -7 -13 -1 -24
2 -24 6 0 5 -9 6 -20 3 -10 -3 -19 -8 -18 -12 2 -17 -4 -20 -26 -11 -15 5 -27
5 -34 -2 -6 -6 -26 -13 -44 -14 -18 -2 -55 -5 -83 -7 -27 -2 -75 -10 -106 -17
-57 -13 -149 -7 -149 10 0 10 -45 3 -71 -11 -11 -6 -20 -6 -24 1 -3 5 -20 10
-36 10 -35 0 -76 19 -102 48 -11 12 -27 18 -45 16 -15 -2 -44 -4 -64 -5 -20
-2 -35 -6 -32 -11 3 -4 -8 -10 -23 -14 -47 -10 -54 -14 -48 -24 3 -5 0 -10 -8
-10 -18 0 -57 -42 -57 -62 0 -20 -13 -24 -70 -22 -107 2 -116 4 -100 15 11 8
9 9 -10 3 -14 -4 -77 -8 -140 -10 -63 -1 -160 -5 -216 -9 -87 -6 -103 -4 -118
10 -9 9 -16 13 -16 9 0 -3 -7 -1 -15 6 -8 7 -15 9 -15 4 0 -5 -5 -1 -11 9 -5
9 -14 17 -19 17 -5 0 -11 -8 -13 -17 -3 -11 -5 -7 -6 10 -1 34 -14 35 -29 1
-7 -15 -17 -22 -24 -18 -7 5 -9 0 -6 -14 4 -12 2 -22 -3 -22 -15 0 -10 -57 6
-73 16 -17 30 -167 14 -167 -5 0 -9 -7 -9 -15 0 -8 6 -15 14 -15 10 0 14 -13
13 -47 0 -27 3 -59 6 -73 13 -62 20 -79 28 -74 5 3 9 -5 9 -18 0 -13 12 -42
27 -65 45 -70 111 -78 288 -32 44 11 90 23 103 26 12 3 25 10 29 16 4 6 -2 8
-14 5 -12 -3 -26 -2 -32 2 -7 4 19 12 57 18 39 7 92 21 118 32 58 25 88 20 56
-11 -25 -22 -28 -33 -9 -26 6 2 19 0 29 -4 14 -8 13 -15 -14 -66 -24 -44 -26
-53 -11 -38 11 11 19 23 17 26 -2 4 3 12 11 19 23 19 19 -3 -11 -63 -14 -29
-20 -46 -13 -39 29 28 31 -2 3 -56 -7 -14 -11 -30 -8 -36 2 -6 -12 -21 -31
-33 -43 -28 -49 -29 -35 -3 6 11 8 20 5 20 -2 0 -21 -31 -40 -70 -19 -38 -31
-70 -25 -70 5 0 10 6 10 13 0 14 39 67 40 53 0 -21 -55 -106 -69 -106 -11 0
-12 -3 -4 -8 10 -7 13 -66 2 -76 -2 -2 -20 -7 -40 -10 -36 -5 -37 -5 -26 18 8
17 14 21 19 13 5 -8 8 -6 8 6 0 14 -5 17 -19 12 -51 -16 -211 -43 -211 -35 0
7 -14 9 -60 11 -14 0 -65 -7 -114 -16 -57 -11 -91 -13 -95 -7 -3 6 -19 11 -36
13 -16 2 -35 7 -40 11 -30 20 -145 -57 -128 -86 4 -5 0 -7 -9 -3 -9 3 -32 -3
-52 -14 -24 -13 -45 -17 -63 -13 -19 5 -24 3 -21 -7 3 -8 17 -13 32 -12 14 1
26 -2 26 -8 0 -5 -3 -8 -7 -8 -23 4 -23 -4 0 -27 14 -14 31 -23 37 -19 7 4 6
-2 -2 -14 -7 -12 -21 -20 -32 -19 -29 4 -44 -47 -21 -72 10 -11 19 -34 21 -51
2 -18 13 -47 23 -65 11 -19 23 -49 27 -69 3 -19 10 -35 16 -35 5 0 7 -4 4 -9
-11 -17 60 -125 75 -115 5 3 19 -2 33 -11 16 -11 26 -13 31 -6 3 6 14 11 24
11 10 0 66 14 125 31 59 17 122 31 139 31 18 1 41 7 52 14 11 8 30 14 42 14
13 0 50 9 84 21 33 12 71 19 85 16 13 -2 27 0 30 5 3 4 10 6 15 3 5 -4 9 -1 9
4 0 6 12 11 26 11 14 0 24 -3 22 -7 -1 -5 -43 -86 -91 -182 -48 -95 -86 -175
-84 -178 3 -2 32 49 65 114 33 65 70 127 81 137 23 21 27 15 11 -15 -6 -10 -8
-19 -6 -19 3 0 13 14 22 31 8 17 11 28 5 25 -6 -4 -11 -3 -11 2 0 18 43 112
51 113 5 1 17 2 27 3 11 0 27 7 36 15 15 13 48 17 189 22 9 0 15 4 12 10 -4 5
1 9 9 9 10 0 13 -6 10 -15 -7 -16 6 -20 22 -6 5 5 54 11 109 14 55 3 112 10
127 16 24 9 86 17 198 25 19 1 42 5 50 8 28 12 69 15 72 7 2 -5 19 -4 38 1 19
6 64 13 100 17 37 3 75 14 90 24 14 10 45 23 70 29 25 7 51 17 59 23 7 6 18
12 25 13 94 17 186 39 186 46 0 4 8 8 18 8 9 0 24 5 32 11 24 17 -86 3 -155
-20 -74 -25 -189 -44 -193 -32 -1 4 -51 -4 -110 -20 -59 -16 -111 -29 -116
-29 -6 0 -6 -4 0 -10 6 -6 41 -3 97 9 48 10 87 15 87 11 0 -6 -65 -25 -125
-36 -16 -3 -37 -8 -45 -11 -28 -11 -100 -20 -100 -12 0 4 -17 3 -37 -1 -21 -5
-63 -11 -93 -14 -30 -3 -64 -8 -76 -10 -12 -2 -45 -7 -74 -11 -29 -4 -60 -8
-69 -10 -9 -1 -41 -6 -71 -9 -84 -10 -41 7 105 43 209 51 207 50 201 36 -5
-14 19 -14 31 0 4 4 2 5 -4 1 -7 -4 -13 -2 -13 3 0 6 7 11 15 11 8 0 15 5 15
11 0 5 -4 8 -8 5 -4 -2 -14 -1 -21 4 -8 4 20 11 70 15 46 4 107 11 134 17 28
5 70 12 95 15 25 3 52 9 60 13 28 15 -57 23 -111 10 -43 -10 -53 -10 -60 1 -7
11 -9 10 -9 -4 0 -10 -4 -16 -8 -13 -4 2 -37 -2 -72 -9 -36 -7 -83 -16 -105
-19 -22 -3 -53 -8 -70 -11 -16 -2 0 6 37 18 65 22 103 42 59 30 -12 -3 -21 -3
-21 0 0 5 48 17 125 33 6 1 68 14 139 28 71 15 135 25 143 22 7 -3 13 1 13 8
0 8 8 13 18 12 9 -2 28 1 42 5 14 4 41 10 60 13 19 3 39 11 45 19 10 13 25 15
160 22 33 2 65 4 72 4 7 1 24 12 39 26 14 13 32 22 38 18 7 -5 7 -2 -1 8 -9
12 -4 14 33 14 30 0 44 -4 44 -13 0 -8 9 -12 23 -10 14 2 22 10 22 22 0 13 11
23 34 31 19 6 36 16 39 23 2 6 10 8 18 5 8 -3 14 1 14 10 0 9 6 20 13 24 18
12 39 52 32 63 -3 6 1 7 9 4 9 -3 16 -13 16 -21 0 -8 -4 -12 -8 -9 -5 3 -9 -9
-9 -27 0 -18 2 -24 4 -15 3 10 10 15 19 11 7 -3 11 -9 8 -14 -3 -5 -2 -14 2
-21 5 -8 9 -6 14 6 5 16 7 16 30 -2 18 -14 31 -17 48 -11 33 13 27 36 -12 43
-26 5 -36 13 -41 33 -6 27 10 47 30 36 5 -4 6 -2 2 3 -5 5 -13 10 -18 10 -5 1
-13 2 -19 3 -6 1 -6 10 0 26 5 14 6 25 1 25 -5 0 -12 -7 -15 -16 -5 -14 -8
-14 -21 0 -8 8 -15 22 -15 30 0 21 -16 21 -24 0 -3 -8 -10 -12 -16 -9 -5 3
-10 -2 -10 -12 0 -14 -7 -10 -28 15 -29 35 -62 36 -62 3 0 -11 -9 -6 -28 17
-26 31 -52 42 -52 22 0 -5 6 -7 14 -4 8 3 19 -3 25 -15 15 -27 14 -30 -9 -24
-11 3 -20 9 -20 13 0 4 -11 12 -25 18 -29 14 -32 6 -7 -21 17 -19 16 -20 -7
-8 -12 7 -32 11 -42 8 -10 -3 -19 -1 -19 3 0 15 -34 17 -51 3 -19 -16 -213
-46 -217 -34 -3 8 -72 -25 -72 -34 0 -2 22 -3 50 -2 27 1 50 5 50 10 0 4 5 7
11 7 5 0 7 -4 4 -10 -8 -14 -2 -13 45 6 22 9 51 13 64 10 14 -3 27 -2 31 4 8
13 35 1 29 -15 -3 -7 -31 -15 -67 -19 -162 -18 -159 -18 -216 -35 -18 -6 -36
-10 -40 -9 -3 0 -31 -1 -61 -2 -48 -2 -51 -3 -24 -10 18 -4 40 -10 50 -15 18
-6 17 -8 -4 -16 -13 -5 -49 -12 -80 -15 -67 -7 -87 -20 -46 -29 16 -4 36 -9
44 -12 8 -3 27 -7 42 -8 39 -2 48 -15 10 -15 -17 0 -33 -4 -36 -9 -3 -5 -32
-7 -63 -5 -68 5 -107 -2 -97 -17 3 -6 -8 -3 -26 6 -20 11 -35 13 -39 7 -3 -6
-28 -13 -55 -17 -32 -5 -44 -10 -35 -16 8 -5 9 -9 3 -9 -5 0 -16 6 -23 13 -11
10 -13 10 -7 0 5 -10 -3 -13 -31 -13 -28 0 -34 3 -23 10 12 8 10 10 -10 11
-14 1 -32 1 -40 0 -10 -1 -9 2 4 10 10 6 59 14 107 17 58 3 90 9 93 17 8 21
-33 22 -134 6 -96 -16 -150 -17 -150 -1 0 11 139 53 172 51 15 0 29 3 33 9 3
5 17 10 31 10 13 0 24 6 24 13 0 16 -39 14 -142 -7 -40 -8 -91 -17 -113 -21
-22 -3 -57 -10 -79 -16 -37 -10 -61 -5 -40 9 6 4 21 29 34 56 12 26 37 62 54
80 17 17 39 43 49 59 9 15 24 27 31 27 8 0 16 7 20 15 8 22 -14 18 -42 -7 -24
-22 -25 -22 -19 -3 7 20 7 20 -8 1 -11 -15 -15 -16 -15 -5 0 8 5 20 12 27 9 9
9 12 0 12 -6 0 -18 -10 -27 -22 -40 -57 -73 -113 -70 -118 5 -10 -71 -145 -83
-146 -36 -4 -37 -4 -22 -14 8 -5 12 -10 7 -10 -4 0 -16 5 -26 12 -18 11 -16
16 26 87 25 42 58 88 74 103 17 15 46 49 66 75 41 54 53 65 70 59 6 -3 13 4
16 14 3 11 0 21 -7 23 -6 3 3 19 22 39 18 20 34 42 36 50 1 8 9 26 17 39 8 13
25 49 38 80 22 56 64 99 97 99 14 0 14 3 4 15 -14 17 -15 17 23 33 32 14 50
16 44 5 -3 -5 1 -14 9 -21 8 -7 14 -8 14 -2 0 11 40 -8 52 -25 5 -7 8 -7 8 0
0 6 4 4 9 -4 5 -7 20 -13 35 -13 14 0 26 -4 26 -9 0 -5 11 -9 24 -9 14 0 27
-4 31 -9 7 -12 40 -6 89 14 20 8 48 16 63 17 16 1 33 5 39 10 6 4 26 10 45 12
19 3 55 8 82 11 73 10 56 -2 -23 -15 -38 -6 -70 -16 -70 -21 0 -17 143 -4 185
16 l40 20 -40 6 c-22 3 -31 7 -20 9 11 1 23 2 28 1 4 0 7 4 7 9 0 13 -36 13
-61 0 -14 -8 -19 -7 -19 1 0 8 -4 8 -13 1 -7 -6 -33 -14 -57 -17 -38 -4 -41
-4 -16 5 16 5 32 14 35 19 4 5 22 13 41 16 19 3 44 8 55 12 18 5 98 9 248 12
55 1 57 2 57 29 0 25 3 27 48 29 26 2 64 5 85 7 20 2 37 0 37 -5 0 -5 -11 -9
-24 -9 -14 0 -27 -4 -31 -9 -3 -6 5 -8 19 -5 28 5 98 11 221 20 44 3 86 7 93
9 7 3 11 1 8 -4 -6 -9 -98 -24 -183 -30 -13 0 -23 -6 -23 -12 0 -10 55 -6 104
8 13 3 16 1 11 -7 -5 -8 0 -11 16 -8 15 2 23 -2 22 -9 -2 -9 11 -11 45 -9 60
5 60 5 42 16 -12 8 -9 10 13 10 15 0 27 4 27 10 0 5 7 6 17 3 12 -5 14 -3 8 8
-7 11 -6 12 6 2 15 -12 73 -11 174 1 17 2 59 7 95 11 35 3 67 8 70 10 9 5 74
14 152 21 40 3 91 13 113 21 35 12 99 23 170 27 11 0 23 6 27 11 5 6 8 5 8 -3
0 -9 5 -10 18 -3 19 10 23 11 50 11 13 0 14 2 4 9 -8 5 9 9 42 10 31 1 56 -3
56 -8 0 -13 -22 -19 -44 -11 -10 3 -34 0 -52 -9 l-32 -14 23 -19 c13 -10 34
-18 47 -18 l23 1 -24 13 c-14 8 -19 16 -13 20 6 3 13 2 17 -4 3 -5 11 -10 16
-10 6 0 8 3 6 8 -3 4 20 7 51 7 54 0 57 1 57 25 0 18 9 29 33 42 45 22 53 32
20 26 -21 -4 -31 0 -42 17 -13 20 -13 24 2 39 14 14 15 20 4 37 -7 11 -10 24
-7 29 3 5 -24 8 -60 8 -36 0 -65 -4 -65 -8 0 -4 -50 -6 -112 -4 -122 4 -147
15 -100 46 16 11 21 18 12 18 -24 0 10 20 36 20 11 0 29 8 40 18 11 9 30 23
42 30 21 11 22 10 22 -18 0 -16 4 -30 9 -30 5 0 7 9 4 20 -4 16 -1 18 17 15
13 -2 20 -2 17 2 -3 3 1 12 9 20 17 18 46 10 38 -10 -3 -10 5 -14 33 -15 32
-1 39 2 40 18 1 11 -2 18 -7 15 -5 -3 -12 -1 -15 5 -4 6 -1 9 6 8 6 -2 14 3
16 10 3 7 -4 12 -16 12 -13 0 -21 6 -21 16 0 14 3 14 15 4 9 -7 18 -10 22 -7
3 4 -8 12 -25 20 -27 11 -29 14 -16 32 8 10 14 27 14 38 0 17 -5 18 -42 12
-24 -4 -49 -12 -55 -17 -9 -7 -14 -6 -18 5 -7 16 -52 20 -61 6 -3 -5 -16 -9
-29 -9 -18 0 -22 4 -18 20 4 15 0 20 -16 20 -11 0 -20 -6 -18 -12z m158 -85
c0 -11 3 -13 6 -5 2 6 16 12 30 12 21 0 24 -2 13 -15 -14 -17 -95 -22 -85 -5
4 6 11 7 17 4 7 -5 9 -1 5 9 -3 10 -2 17 3 17 6 0 10 -8 11 -17z m53 -42 c3
-5 -2 -11 -12 -13 -11 -3 -19 0 -19 8 0 16 23 19 31 5z m-67 -17 c-3 -3 -12
-4 -19 -1 -8 3 -5 6 6 6 11 1 17 -2 13 -5z m-253 -151 c-10 -7 -26 -13 -36
-13 -23 0 -23 0 -57 -10 -22 -6 -31 -5 -35 5 -3 8 2 14 12 14 9 0 37 4 62 9
66 12 76 11 54 -5z m-137 -29 c-3 -3 -12 -4 -19 -1 -8 3 -5 6 6 6 11 1 17 -2
13 -5z m491 -9 c3 -3 -4 -4 -16 -2 -12 2 -24 6 -28 10 -4 3 4 4 16 2 12 -2 25
-7 28 -10z m-6 -24 c-11 -7 -11 -9 1 -14 8 -3 24 1 36 9 19 14 21 13 21 -1 0
-9 -5 -13 -11 -9 -7 4 -10 -2 -8 -17 4 -28 -8 -52 -22 -43 -5 3 -7 10 -4 15 4
5 -1 9 -9 9 -8 0 -18 9 -21 20 -4 11 -11 18 -16 15 -10 -7 -12 8 -2 18 3 4 16
7 27 7 15 0 17 -3 8 -9z m-79 -18 c-7 -2 -10 -10 -7 -17 6 -16 -54 -28 -63
-13 -3 6 -1 7 4 4 6 -4 23 5 38 19 15 14 30 22 34 18 3 -4 1 -9 -6 -11z m-435
-11 c-16 -2 -28 -7 -28 -12 0 -4 12 -6 28 -4 15 2 70 6 122 9 52 2 111 9 130
15 44 13 73 13 65 0 -3 -5 -21 -10 -40 -10 -19 0 -36 -4 -40 -10 -3 -5 -12 -7
-19 -4 -8 3 -33 -4 -56 -16 -23 -12 -44 -19 -47 -16 -3 2 -28 -2 -56 -11 -30
-9 -68 -13 -93 -9 -22 3 -45 1 -51 -5 -6 -6 -39 -13 -74 -16 -35 -3 -69 -9
-76 -15 -6 -5 -30 -10 -52 -11 -23 -1 -41 -5 -41 -9 0 -6 -71 -11 -134 -9 -16
0 -36 -5 -43 -11 -7 -6 -16 -8 -20 -5 -3 4 -11 3 -17 -2 -13 -11 -44 -17 -126
-27 -30 -4 -65 -10 -77 -15 -17 -6 -25 -4 -32 9 -7 14 -4 17 17 19 136 11 183
17 188 25 4 5 -11 7 -36 3 -28 -4 -40 -3 -35 4 9 15 -32 17 -158 7 -37 -3 -78
-1 -90 4 -18 7 -14 9 23 10 96 3 145 12 162 27 13 11 35 16 71 15 65 -2 129 7
122 18 -3 5 3 7 12 5 10 -2 22 -4 26 -4 5 -1 5 -7 2 -13 -4 -7 0 -6 7 4 9 10
23 14 41 11 15 -3 43 2 62 12 20 9 62 17 95 18 32 1 56 5 54 9 -10 16 133 28
206 18 32 -4 33 -5 8 -8z m95 11 c-7 -2 -19 -2 -25 0 -7 3 -2 5 12 5 14 0 19
-2 13 -5z m294 1 c-3 -3 -12 -4 -19 -1 -8 3 -5 6 6 6 11 1 17 -2 13 -5z m-817
-30 c0 -8 -19 -13 -24 -6 -3 5 1 9 9 9 8 0 15 -2 15 -3z m-565 -24 c3 -5 1
-10 -4 -10 -6 0 -11 5 -11 10 0 6 2 10 4 10 3 0 8 -4 11 -10z m284 -4 c-9 -8
-149 -12 -149 -4 0 4 35 8 77 8 42 0 74 -2 72 -4z m-305 -35 c17 5 47 6 66 2
l35 -6 -49 -13 c-28 -7 -53 -11 -57 -8 -4 2 -29 -1 -56 -7 -26 -6 -64 -12 -84
-14 -20 -1 -41 -5 -47 -8 -11 -7 -140 -24 -183 -25 -19 0 -26 5 -25 16 3 19
22 27 31 13 11 -18 33 -12 59 15 24 27 67 35 111 21 11 -3 47 0 80 7 33 7 66
10 74 6 8 -4 28 -4 45 1z m-1708 -20 c0 -18 -11 -19 -56 -5 -19 6 0 19 32 21
17 2 24 -3 24 -16z m1804 -9 c0 -14 -196 -59 -207 -48 -3 3 -15 0 -26 -6 -11
-6 -55 -14 -96 -19 -42 -5 -77 -13 -79 -17 -1 -5 -21 -7 -44 -5 -33 4 -40 2
-35 -10 4 -11 -4 -15 -39 -15 -25 -1 -49 -4 -54 -7 -16 -10 -88 -17 -93 -8 -6
9 12 26 33 32 8 2 40 3 71 2 44 -1 58 3 63 15 4 11 13 14 27 11 12 -3 33 -1
48 5 14 5 41 12 60 14 19 2 57 8 85 13 56 11 144 23 191 27 25 2 46 7 93 23 1
1 2 -3 2 -7z m190 -26 c0 -2 -7 -6 -15 -10 -8 -3 -15 -1 -15 4 0 6 7 10 15 10
8 0 15 -2 15 -4z m-43 -12 c-3 -3 -12 -4 -19 -1 -8 3 -5 6 6 6 11 1 17 -2 13
-5z m-97 -8 c0 -2 -15 -6 -34 -8 -19 -2 -32 0 -30 4 5 8 64 12 64 4z m-783
-24 c-20 -2 -27 -8 -23 -18 5 -12 2 -12 -16 -3 l-21 12 23 12 c13 7 32 10 44
6 18 -5 17 -6 -7 -9z m48 8 c-3 -5 0 -10 7 -10 8 0 6 -5 -5 -11 -10 -6 -21 -8
-24 -5 -4 3 -1 6 5 6 6 0 9 7 6 15 -4 8 -1 15 6 15 6 0 8 -4 5 -10z m805 6 c0
-3 -4 -8 -10 -11 -5 -3 -10 -1 -10 4 0 6 5 11 10 11 6 0 10 -2 10 -4z m-693
-12 c-3 -3 -12 -4 -19 -1 -8 3 -5 6 6 6 11 1 17 -2 13 -5z m1303 -4 c-15 -9
-127 -12 -113 -3 6 5 36 8 67 9 31 0 51 -3 46 -6z m-165 -10 c-3 -5 -11 -10
-16 -10 -6 0 -7 5 -4 10 3 6 11 10 16 10 6 0 7 -4 4 -10z m-482 -7 c-7 -2 -19
-2 -25 0 -7 3 -2 5 12 5 14 0 19 -2 13 -5z m-777 -50 c-10 -10 -19 5 -10 18 6
11 8 11 12 0 2 -7 1 -15 -2 -18z m1007 20 c-7 -2 -19 -2 -25 0 -7 3 -2 5 12 5
14 0 19 -2 13 -5z m-828 -33 c-3 -5 -16 -10 -28 -10 -18 0 -19 2 -7 10 20 13
43 13 35 0z m-110 -70 c-3 -5 -16 -10 -28 -10 -18 0 -19 2 -7 10 20 13 43 13
35 0z m-978 -439 c-2 -10 -9 -29 -18 -42 -37 -60 -92 -196 -86 -213 4 -9 -3
-16 -21 -19 -15 -3 -29 -4 -31 -2 -5 6 46 90 63 105 9 7 16 19 16 27 0 8 6 27
14 41 8 15 24 48 36 75 23 50 32 59 27 28z m268 -40 c-3 -6 -11 -11 -17 -11
-6 0 -6 6 2 15 14 17 26 13 15 -4z m-485 -101 c0 -5 -5 -10 -11 -10 -5 0 -7 5
-4 10 3 6 8 10 11 10 2 0 4 -4 4 -10z m-46 -86 c-14 -25 -33 -54 -42 -65 -18
-21 -37 -26 -26 -6 6 10 4 10 -7 0 -25 -24 -31 -13 -10 20 11 17 28 32 38 32
10 0 22 9 28 20 17 34 26 45 35 45 5 0 -2 -21 -16 -46z m475 -65 c-8 -5 -25
-8 -39 -8 -20 1 -21 2 -5 6 11 3 24 9 29 14 5 4 13 6 19 2 5 -3 3 -9 -4 -14z
m493 -40 c-4 -4 -16 -9 -27 -12 -11 -2 -4 -3 15 0 19 2 53 6 75 9 28 3 46 0
60 -11 11 -9 14 -14 8 -10 -7 3 -13 2 -13 -3 0 -5 -30 -9 -66 -9 -36 1 -68 -4
-72 -9 -4 -6 -17 -10 -30 -9 -13 1 -25 -2 -28 -7 -3 -4 12 -8 33 -8 28 0 34
-3 23 -10 -12 -7 -8 -10 14 -10 46 0 27 -8 -39 -15 -33 -4 -64 -9 -68 -12 -5
-3 -23 -7 -40 -9 -18 -2 -45 -6 -62 -9 -22 -4 -26 -2 -15 5 8 5 25 10 37 10
12 0 24 4 27 8 3 4 -28 4 -67 0 -40 -5 -89 -9 -109 -10 -21 -1 -33 -5 -27 -9
7 -4 5 -9 -5 -12 -9 -4 -16 -2 -16 3 0 6 -9 10 -20 10 -11 0 -20 3 -20 8 0 4
-16 7 -35 8 -18 0 -32 -2 -30 -5 1 -3 -13 -6 -33 -6 -21 -1 -57 -3 -82 -5 -35
-4 -45 -2 -45 10 0 11 17 17 65 21 36 3 83 11 105 17 23 7 59 14 80 16 22 2
51 8 65 14 14 5 34 6 45 2 40 -15 195 13 195 35 0 9 14 15 38 17 59 5 72 4 64
-3z m-812 -8 c-8 -5 -26 -12 -40 -15 -24 -7 -24 -6 -6 8 11 9 29 16 40 16 17
-1 18 -2 6 -9z m330 -1 c-8 -5 -24 -9 -35 -9 l-20 0 20 9 c11 5 27 9 35 9 13
1 13 0 0 -9z m365 0 c3 -6 -4 -10 -17 -10 -18 0 -20 2 -8 10 19 12 18 12 25 0z
m282 4 c-3 -3 -12 -4 -19 -1 -8 3 -5 6 6 6 11 1 17 -2 13 -5z m33 -4 c0 -5 -4
-10 -10 -10 -5 0 -10 5 -10 10 0 6 5 10 10 10 6 0 10 -4 10 -10z m-892 -20
c-14 -22 -24 -19 -15 5 4 8 11 15 17 15 6 0 6 -7 -2 -20z m132 16 c0 -3 -4 -8
-10 -11 -5 -3 -10 -1 -10 4 0 6 5 11 10 11 6 0 10 -2 10 -4z m-327 -13 c-7 -2
-19 -2 -25 0 -7 3 -2 5 12 5 14 0 19 -2 13 -5z m1024 -39 c-3 -3 -12 -4 -19
-1 -8 3 -5 6 6 6 11 1 17 -2 13 -5z m-2007 -38 c0 -3 -4 -8 -10 -11 -5 -3 -10
-1 -10 4 0 6 5 11 10 11 6 0 10 -2 10 -4z m1190 -20 c0 -2 -11 -6 -25 -8 -13
-3 -22 -1 -19 3 5 9 44 13 44 5z m277 -22 c-3 -3 -12 -4 -19 -1 -8 3 -5 6 6 6
11 1 17 -2 13 -5z m-1467 -54 c0 -5 -5 -10 -11 -10 -5 0 -7 5 -4 10 3 6 8 10
11 10 2 0 4 -4 4 -10z m1427 -64 c-4 -10 3 -13 31 -11 l37 3 -31 -14 c-18 -7
-56 -15 -85 -18 -30 -2 -44 -2 -31 1 12 2 22 9 22 14 0 6 -9 7 -20 4 -12 -4
-37 -9 -57 -11 -20 -3 -53 -8 -74 -13 -22 -5 -39 -6 -39 -2 0 9 83 31 123 32
17 0 48 6 67 13 47 18 63 19 57 2z m540 8 c-3 -3 -12 -4 -19 -1 -8 3 -5 6 6 6
11 1 17 -2 13 -5z m-1077 -14 c0 -5 -12 -10 -27 -9 l-28 1 25 8 c14 4 26 8 28
9 1 1 2 -3 2 -9z m290 -4 c0 -2 -9 -6 -20 -9 -11 -3 -18 -1 -14 4 5 9 34 13
34 5z m97 -52 c-3 -3 -12 -4 -19 -1 -8 3 -5 6 6 6 11 1 17 -2 13 -5z"/>
<path d="M5227 8259 c7 -7 15 -10 18 -7 3 3 -2 9 -12 12 -14 6 -15 5 -6 -5z"/>
<path d="M5075 8210 c-3 -5 -1 -10 4 -10 6 0 11 5 11 10 0 6 -2 10 -4 10 -3 0
-8 -4 -11 -10z"/>
<path d="M5190 8210 c-13 -8 -13 -10 2 -10 9 0 20 5 23 10 8 13 -5 13 -25 0z"/>
<path d="M4835 8180 c-16 -7 -17 -9 -3 -9 9 -1 20 4 23 9 7 11 7 11 -20 0z"/>
<path d="M4633 8173 c9 -2 23 -2 30 0 6 3 -1 5 -18 5 -16 0 -22 -2 -12 -5z"/>
<path d="M3270 7100 c0 -5 7 -10 15 -10 8 0 15 5 15 10 0 6 -7 10 -15 10 -8 0
-15 -4 -15 -10z"/>
<path d="M5140 8570 c-12 -8 -10 -10 8 -10 13 0 20 4 17 10 -7 12 -6 12 -25 0z"/>
<path d="M4965 8550 c-22 -4 -33 -8 -25 -10 23 -4 61 1 84 10 20 8 20 9 1 8
-11 0 -38 -4 -60 -8z"/>
<path d="M4840 8540 c0 -12 8 -12 35 0 18 8 17 9 -7 9 -16 1 -28 -3 -28 -9z"/>
<path d="M4700 8520 c0 -5 5 -10 10 -10 6 0 10 5 10 10 0 6 -4 10 -10 10 -5 0
-10 -4 -10 -10z"/>
<path d="M11856 8498 l-25 -30 25 -27 c41 -44 33 -51 -26 -21 -44 22 -54 25
-45 10 3 -6 -4 -10 -18 -10 -14 0 -31 -8 -38 -17 -13 -16 -12 -17 3 -5 19 15
59 7 55 -11 -1 -7 9 -12 23 -13 51 -1 61 -4 54 -15 -4 -8 -9 -8 -17 0 -16 16
-30 13 -24 -4 7 -17 -9 -30 -18 -15 -8 13 -45 13 -45 0 0 -5 -7 -10 -15 -10
-18 0 -19 -12 -2 -29 6 -7 -2 -4 -20 5 -17 10 -29 22 -27 26 14 22 -12 2 -67
-52 -33 -33 -64 -60 -69 -60 -4 0 -26 -15 -47 -33 -29 -23 -39 -39 -38 -57 1
-14 -7 -38 -18 -55 l-21 -30 29 25 c20 18 26 20 22 8 -3 -9 -1 -18 5 -20 17
-6 -16 -46 -76 -93 -27 -22 -95 -85 -151 -140 -113 -113 -176 -171 -285 -264
-41 -35 -86 -76 -100 -90 -14 -15 -54 -51 -90 -81 -133 -111 -178 -162 -106
-119 20 12 40 17 51 12 14 -5 16 -3 10 7 -5 9 -4 11 4 6 6 -4 25 4 42 18 17
14 35 26 40 26 21 0 6 -21 -48 -66 -31 -27 -88 -80 -126 -119 -45 -45 -71 -65
-74 -57 -3 8 5 21 17 29 15 11 18 18 10 23 -8 5 4 19 35 41 26 18 42 35 36 37
-6 2 -9 7 -6 12 2 4 -6 8 -20 8 -16 0 -46 -21 -89 -62 -72 -67 -106 -96 -117
-96 -14 0 -15 35 -1 65 8 19 31 40 58 54 24 13 44 27 44 31 0 4 19 20 42 36
23 16 63 50 88 75 25 25 52 50 60 55 9 5 23 21 33 37 10 15 25 27 35 27 18 0
65 39 147 120 28 28 55 50 62 50 6 0 13 4 15 8 2 5 16 15 32 23 16 8 36 25 45
39 l16 25 -25 -18 c-30 -21 -33 -22 -84 -33 -26 -6 -40 -15 -42 -26 -1 -10 2
-18 7 -18 6 0 7 -5 4 -11 -4 -6 -13 -8 -21 -5 -7 3 -16 0 -20 -6 -4 -7 -3 -8
4 -4 7 4 12 2 12 -4 0 -8 -9 -10 -25 -6 -19 5 -28 1 -41 -19 -9 -14 -22 -25
-29 -25 -7 0 -18 -7 -25 -16 -8 -8 -22 -20 -33 -26 -17 -9 -19 -8 -14 6 10 26
-9 19 -50 -19 -21 -19 -41 -35 -45 -35 -4 0 -16 -10 -27 -21 -13 -14 -27 -20
-40 -16 -12 3 -22 1 -22 -4 -1 -5 -2 -13 -3 -19 0 -5 -30 -35 -66 -66 -36 -32
-82 -74 -104 -95 -21 -22 -42 -36 -47 -33 -5 3 -9 -2 -9 -11 0 -9 -5 -13 -10
-10 -6 4 -8 10 -5 15 3 4 1 10 -5 12 -13 4 -102 257 -95 269 3 5 1 26 -4 46
-16 64 -20 103 -9 103 6 0 7 7 4 15 -3 8 -9 22 -13 32 -5 12 -3 14 7 8 10 -6
12 -4 5 11 -4 10 -9 39 -12 64 -8 90 -90 432 -106 442 -6 3 -11 21 -11 40 -1
29 -5 33 -31 36 -60 6 -122 6 -225 -2 -153 -11 -182 -15 -206 -31 -12 -7 -38
-17 -58 -21 -30 -5 -37 -10 -33 -24 3 -13 -2 -20 -20 -25 -19 -4 -23 -10 -17
-27 4 -13 1 -24 -7 -29 -10 -6 -11 -9 -1 -9 25 0 13 -39 -15 -46 l-26 -7 21
-18 c12 -9 22 -24 22 -31 0 -8 11 -38 25 -67 14 -29 31 -74 37 -101 6 -27 15
-47 18 -45 15 9 30 -23 69 -139 21 -65 40 -113 43 -106 2 6 16 -26 32 -72 16
-46 43 -112 59 -148 17 -36 30 -68 29 -72 -1 -5 2 -8 7 -8 4 0 14 -21 22 -47
7 -26 14 -42 16 -36 3 7 -5 43 -16 81 -26 85 -26 87 -1 62 11 -11 20 -27 20
-36 0 -9 5 -12 12 -8 7 4 8 3 4 -4 -4 -6 1 -23 10 -37 10 -15 14 -34 10 -49
-6 -23 9 -82 24 -99 4 -5 10 -1 14 8 3 9 2 14 -3 11 -5 -3 -11 1 -14 9 -4 9
-1 12 9 8 18 -7 18 15 -2 62 -8 20 -14 44 -12 53 2 10 14 -12 27 -48 13 -36
28 -77 33 -92 6 -16 16 -28 24 -28 7 0 18 -19 24 -42 6 -24 17 -58 25 -76 8
-17 14 -35 14 -38 0 -3 8 -12 18 -20 10 -7 14 -14 9 -14 -4 0 -1 -11 7 -24 9
-12 18 -38 22 -57 6 -31 2 -37 -45 -79 -28 -25 -74 -68 -103 -96 -63 -61 -104
-91 -63 -46 17 18 25 32 20 32 -16 0 -54 -31 -54 -44 0 -18 -35 -48 -44 -39
-4 5 -6 4 -4 -2 4 -14 -43 -75 -58 -75 -9 0 -9 6 -1 24 7 13 15 22 18 20 4 -2
12 3 19 11 9 11 9 15 1 15 -7 0 -9 6 -6 13 4 6 -6 -4 -21 -23 -34 -41 -104
-109 -113 -108 -19 2 -24 -3 -12 -11 12 -8 12 -12 2 -25 -7 -9 -17 -14 -21
-11 -4 3 -25 -17 -46 -43 -34 -42 -135 -155 -242 -270 -24 -26 -46 -41 -52
-37 -7 4 -18 -2 -26 -14 -8 -12 -20 -21 -27 -21 -8 0 -8 3 1 12 7 7 12 16 12
21 0 5 -28 -21 -62 -59 -35 -37 -84 -89 -110 -115 -27 -26 -48 -51 -48 -56 0
-5 -16 -17 -35 -27 -19 -10 -33 -23 -32 -29 1 -6 -9 -13 -23 -17 -16 -4 -24
-12 -22 -23 3 -18 -13 -23 -23 -7 -12 19 -25 10 -40 -28 -12 -29 -25 -42 -53
-52 -20 -8 -40 -13 -44 -12 -4 1 -12 -7 -18 -17 -8 -15 -3 -31 22 -75 18 -31
36 -56 40 -56 4 0 10 11 14 25 9 34 17 31 41 -14 19 -34 19 -42 7 -58 -11 -15
-15 -15 -23 -4 -6 10 -10 10 -16 1 -4 -6 -2 -17 4 -23 8 -8 19 -5 41 11 22 17
30 19 30 8 0 -7 -7 -17 -16 -20 -14 -5 -14 -9 -3 -22 12 -14 14 -14 24 -1 15
21 38 6 33 -21 -3 -21 64 -122 81 -122 5 0 12 8 14 18 3 12 5 11 6 -6 1 -14 6
-22 14 -19 6 2 20 -2 30 -11 15 -14 17 -13 17 6 0 28 8 28 38 0 l25 -23 -6 23
c-7 28 1 54 14 46 5 -3 9 4 9 16 0 24 14 22 80 -7 30 -14 55 -17 129 -14 14 1
18 9 18 39 0 32 18 64 118 208 158 227 194 274 206 274 12 0 23 9 112 90 78
71 229 190 265 209 23 12 32 37 10 26 -7 -3 -4 0 6 7 37 24 101 88 82 82 -16
-6 -17 -4 -7 13 10 19 33 35 56 37 6 1 9 10 7 20 -2 10 5 24 15 32 16 13 15
13 -9 4 -16 -5 -28 -7 -28 -4 0 2 -13 -9 -30 -26 -16 -16 -33 -30 -38 -30 -5
0 -24 -13 -43 -30 -19 -16 -39 -34 -46 -40 -7 -5 -15 -10 -18 -10 -4 0 -25
-13 -48 -28 -76 -52 -79 -43 -9 28 38 39 74 70 81 70 9 0 35 24 80 76 7 8 19
13 27 10 9 -3 11 0 7 11 -5 12 -3 14 7 8 8 -5 11 -3 8 6 -5 14 80 94 90 85 2
-3 0 -12 -7 -20 -9 -11 -7 -15 8 -19 12 -3 23 -19 29 -41 6 -19 19 -48 29 -63
11 -15 31 -57 45 -93 15 -36 49 -112 76 -170 49 -103 76 -179 67 -188 -5 -5
-25 43 -25 58 0 5 -4 12 -10 15 -6 4 -6 -4 1 -22 6 -18 7 -29 0 -31 -5 -2 -6
-14 -1 -30 10 -35 127 -262 145 -282 11 -12 55 -115 55 -129 0 -2 -10 4 -21
15 l-21 19 7 -34 c5 -23 4 -31 -4 -27 -16 11 -13 -5 5 -25 14 -16 15 -20 1
-33 -8 -8 -18 -12 -22 -8 -5 4 -5 1 -1 -5 4 -7 13 -13 20 -13 8 0 19 -7 26
-15 14 -17 35 -21 25 -5 -10 16 23 12 50 -6 13 -9 29 -13 35 -9 5 3 13 -1 16
-9 3 -9 10 -16 16 -16 5 0 7 4 4 9 -5 7 11 13 74 27 8 1 20 11 27 21 8 9 21
18 31 18 32 1 82 39 82 63 0 18 -3 21 -17 13 -26 -13 -48 12 -27 30 10 8 13
21 9 36 -6 27 15 32 35 8 11 -14 15 -12 27 13 11 22 19 28 37 25 26 -5 96 21
96 35 0 6 -12 13 -27 17 l-28 8 25 6 c14 4 25 13 25 21 0 8 4 20 8 27 4 7 -1
14 -14 18 -22 7 -16 21 13 27 14 3 15 5 3 22 -9 11 -18 15 -27 10 -7 -5 -17
-9 -22 -9 -5 0 -10 -22 -11 -50 -2 -71 -4 -77 -15 -70 -5 3 -10 1 -10 -4 0 -6
-8 -11 -17 -10 -11 0 -13 3 -5 6 6 2 12 11 12 19 0 8 5 14 10 14 6 0 10 5 10
12 0 6 -3 8 -7 5 -6 -7 -43 40 -43 56 0 4 11 7 25 7 26 0 30 7 17 28 -5 7 -16
10 -25 6 -27 -10 -71 44 -92 111 -10 33 -27 74 -37 90 -18 30 -26 28 -9 -3 5
-9 11 -31 14 -48 3 -17 12 -45 21 -62 9 -18 13 -32 9 -32 -13 0 -51 61 -67
106 -7 22 -28 66 -45 96 -18 31 -27 58 -21 60 5 1 -35 91 -90 199 -54 108
-115 234 -134 280 -19 46 -46 111 -60 144 -28 66 -33 100 -13 90 6 -4 4 0 -6
8 -20 16 -20 22 -6 49 11 21 -16 58 -43 58 -10 0 -18 7 -18 15 0 8 7 15 16 15
8 0 12 -4 9 -10 -14 -22 7 -8 40 28 37 39 44 55 21 46 -8 -3 -16 -14 -19 -25
-3 -10 -13 -19 -22 -19 -21 0 -14 11 52 80 174 183 203 212 203 204 0 -6 -7
-19 -15 -30 -22 -29 -17 -43 5 -15 11 13 20 18 20 12 0 -11 26 8 83 62 17 15
26 27 20 27 -5 0 -18 -8 -29 -17 -49 -45 -54 -47 -54 -25 0 26 26 53 44 46 13
-5 51 55 51 80 0 5 6 11 13 14 6 2 12 -4 12 -13 0 -9 5 -13 10 -10 21 13 9
-10 -17 -33 -24 -20 -25 -22 -5 -12 13 6 32 20 43 31 10 10 24 19 30 19 7 0
-12 -26 -41 -57 -124 -135 -270 -290 -338 -360 -48 -50 -65 -72 -50 -67 13 4
31 16 40 28 16 18 129 136 389 406 40 41 65 63 55 48 -23 -39 -8 -35 39 11 77
75 90 88 118 119 16 18 37 32 48 32 10 0 19 -2 19 -4 0 -2 -38 -36 -85 -76
-47 -40 -85 -79 -85 -88 0 -9 25 8 63 43 55 51 97 89 200 180 15 14 32 25 37
25 6 0 37 22 71 49 34 27 85 60 115 73 29 13 54 26 54 31 0 4 -17 7 -37 8 -35
1 -33 2 18 13 30 6 78 26 105 43 47 30 120 56 134 48 12 -7 33 13 25 25 -5 8
-10 9 -14 1 -4 -5 -34 -13 -66 -16 l-60 -7 25 21 c14 11 36 21 50 21 14 0 32
5 40 11 12 9 11 10 -7 6 -13 -3 -25 -2 -28 3 -3 4 11 11 30 14 19 4 35 10 35
14 0 15 -23 30 -36 25 -22 -8 -17 4 14 32 30 29 77 57 89 53 4 -1 19 4 33 12
14 8 36 15 50 16 33 1 81 25 74 35 -3 5 0 9 7 9 18 0 48 40 42 56 -3 8 0 14 7
14 6 0 8 5 5 10 -3 6 -2 10 3 10 5 0 12 9 15 20 3 13 0 20 -10 20 -8 0 -12 4
-9 8 5 9 2 12 -96 90 -43 34 -68 48 -71 40 -2 -7 -7 -10 -11 -6 -4 3 -2 16 4
28 9 16 9 25 1 33 -6 6 -11 19 -11 28 0 23 -25 32 -85 31 -27 0 -44 2 -37 5
19 7 14 27 -13 53 -35 33 -50 33 -79 -2z m92 -109 c-7 -5 -24 -9 -38 -9 -19 0
-22 2 -10 9 8 6 18 7 22 5 4 -3 8 2 8 12 0 14 3 14 15 4 13 -11 13 -15 3 -21z
m12 -353 c0 -2 -7 -7 -16 -10 -8 -3 -12 -2 -9 4 6 10 25 14 25 6z m20 -50 c0
-2 -8 -10 -17 -17 -16 -13 -17 -12 -4 4 13 16 21 21 21 13z m-345 -286 c-24
-27 -95 -69 -75 -44 13 15 78 62 89 63 2 1 -4 -8 -14 -19z m15 -38 c0 -12 -67
-42 -74 -34 -4 3 8 14 26 24 37 19 48 22 48 10z m-196 -66 c-3 -8 -13 -17 -22
-21 -13 -5 -13 -2 3 15 21 24 26 25 19 6z m55 -24 c-10 -7 -29 -15 -41 -17
-18 -4 -16 1 13 24 22 19 36 25 41 18 4 -6 -2 -17 -13 -25z m-1534 -63 c4 -19
16 -44 26 -57 10 -13 21 -37 24 -53 4 -17 14 -33 22 -36 13 -5 26 -29 74 -138
5 -11 15 -38 23 -60 8 -22 23 -63 34 -92 l21 -52 -37 -22 c-24 -14 -32 -24
-23 -27 8 -3 20 3 27 13 7 9 21 15 31 13 15 -3 14 -6 -9 -22 -42 -28 -70 -15
-91 41 -44 117 -107 305 -107 321 0 12 -2 14 -8 4 -6 -9 -13 1 -21 30 -9 30
-10 43 -2 46 15 5 14 38 -4 96 -20 64 -20 104 -1 60 8 -17 17 -46 21 -65z
m1418 -14 c-19 -19 -40 -35 -46 -35 -12 0 63 69 75 70 3 0 -10 -16 -29 -35z
m-148 -90 c-38 -35 -72 -62 -74 -59 -3 2 4 11 15 19 10 8 15 15 11 15 -4 0
-30 -21 -57 -46 -49 -45 -67 -50 -32 -8 30 36 127 112 157 125 19 7 25 13 16
16 -11 5 -11 7 0 14 8 5 18 4 24 -2 6 -6 -14 -31 -60 -74z m-1119 -10 c3 -22
12 -47 20 -55 7 -9 27 -56 45 -105 17 -50 37 -102 45 -117 17 -34 17 -33 -2
-53 -15 -15 -17 -14 -28 7 -7 13 -15 32 -18 43 -47 158 -59 201 -72 265 -19
87 -19 90 -6 70 5 -8 12 -33 16 -55z m841 45 c1 -11 -2 -20 -8 -20 -5 0 -9 -7
-9 -15 0 -8 -4 -15 -9 -15 -4 0 -20 -18 -35 -40 -15 -23 -30 -38 -35 -36 -16
10 2 58 26 69 14 6 22 16 19 24 -3 8 2 17 12 20 9 4 21 12 25 20 11 17 12 17
14 -7z m-795 -17 c0 -10 2 -24 2 -30 1 -7 9 -21 18 -32 18 -21 32 -50 76 -163
24 -61 28 -79 18 -87 -10 -8 -19 1 -38 37 -45 83 -107 292 -87 292 5 0 10 -8
11 -17z m-332 -4 c0 -5 4 -8 9 -5 5 3 12 -1 15 -10 4 -11 2 -15 -7 -11 -10 4
-13 -2 -9 -21 3 -18 1 -24 -5 -17 -15 14 -25 75 -13 75 6 0 10 -5 10 -11z
m249 -69 c0 -23 -15 7 -22 45 l-6 30 14 -30 c8 -16 14 -37 14 -45z m265 -182
c-3 -5 -9 -6 -14 -3 -8 5 -71 170 -69 183 0 4 20 -33 44 -83 24 -49 41 -93 39
-97z m736 179 c0 -2 -8 -12 -19 -21 -17 -15 -19 -15 -25 -1 -3 9 -2 13 3 10 5
-3 12 -1 16 5 6 9 25 14 25 7z m-183 -99 c0 -13 -1 -18 -4 -11 -2 7 -12 9 -21
6 -15 -6 -15 -5 -3 10 18 23 27 21 28 -5z m-247 -32 c0 -3 -4 -8 -10 -11 -5
-3 -10 -1 -10 4 0 6 5 11 10 11 6 0 10 -2 10 -4z m86 -63 c-20 -21 -49 -50
-64 -65 -29 -30 -65 -41 -42 -13 7 8 16 12 21 9 5 -3 9 2 9 10 0 8 9 20 19 26
11 5 23 19 26 30 3 11 15 20 26 20 10 0 19 5 19 10 0 6 5 10 12 10 7 0 -5 -17
-26 -37z m48 -32 c-10 -10 -25 -16 -32 -13 -8 3 -10 -1 -6 -12 4 -10 -6 -28
-30 -52 -20 -20 -36 -40 -36 -45 0 -5 -13 -15 -30 -24 -16 -9 -30 -22 -30 -31
0 -8 -5 -12 -11 -9 -5 4 -19 -1 -30 -11 -10 -9 -19 -13 -19 -8 0 12 112 129
122 129 4 0 19 16 33 35 30 41 53 60 74 60 11 0 10 -4 -5 -19z m-365 -51 c0
-9 -6 -4 -14 10 -8 14 -14 32 -14 40 0 9 6 4 14 -10 8 -14 14 -32 14 -40z
m-28 -1 c16 -31 -4 -47 -24 -18 -16 22 -14 39 3 39 5 0 14 -9 21 -21z m-38
-39 c3 -11 2 -20 -3 -20 -8 0 -20 24 -20 41 0 17 17 1 23 -21z m-21 -9 c16
-29 16 -29 -24 -64 -22 -20 -47 -33 -54 -30 -17 6 -19 53 -1 53 8 0 8 3 -2 9
-12 8 -10 14 10 35 31 33 50 33 71 -3z m-127 -61 c-3 -5 -2 -10 3 -10 13 0 31
-45 24 -56 -10 -15 -73 -57 -77 -52 -3 2 -5 18 -7 36 -1 19 -8 32 -16 32 -22
0 -9 33 13 35 11 1 29 6 40 13 25 14 28 15 20 2z m327 -72 c-7 -7 -12 -8 -12
-2 0 14 12 26 19 19 2 -3 -1 -11 -7 -17z m-339 -58 c-5 -19 -23 -29 -23 -12 0
7 20 32 26 32 1 0 0 -9 -3 -20z m207 -24 c0 -3 -4 -8 -10 -11 -5 -3 -10 -1
-10 4 0 6 5 11 10 11 6 0 10 -2 10 -4z m50 -4 c0 -5 -16 -26 -35 -48 -31 -34
-34 -35 -23 -11 6 15 14 27 18 27 4 0 10 9 13 20 5 19 27 29 27 12z m80 -2 c0
-5 -5 -10 -11 -10 -5 0 -7 5 -4 10 3 6 8 10 11 10 2 0 4 -4 4 -10z m60 -21 c0
-11 -4 -17 -10 -14 -5 3 -10 13 -10 21 0 8 5 14 10 14 6 0 10 -9 10 -21z
m-222 -12 c9 3 0 -10 -20 -29 -21 -20 -38 -41 -38 -47 0 -6 -4 -11 -10 -11
-15 0 -12 16 5 30 8 6 14 15 13 18 -3 11 27 53 30 43 2 -6 11 -7 20 -4z m153
-14 c5 -14 7 -34 4 -42 -5 -13 -9 -11 -20 9 -17 30 -19 60 -5 60 6 0 15 -12
21 -27z m-251 4 c0 -2 -10 -12 -22 -23 l-23 -19 19 23 c18 21 26 27 26 19z
m212 -40 c-4 -14 -1 -18 7 -13 8 6 10 1 5 -18 -3 -15 -1 -32 5 -40 9 -11 9
-15 -1 -19 -10 -4 -8 -10 6 -21 13 -10 22 -12 26 -6 6 9 25 -27 65 -124 9 -21
18 -36 21 -33 2 2 -11 39 -31 81 -19 42 -36 84 -38 94 -1 9 -6 23 -11 30 -7
11 -4 11 13 0 12 -7 21 -18 21 -24 0 -6 11 -36 25 -65 25 -54 25 -31 0 26 -25
57 -28 75 -11 69 9 -3 16 -10 16 -15 0 -9 31 -79 142 -319 24 -53 55 -116 70
-140 14 -25 29 -56 32 -70 9 -29 -31 34 -80 130 -57 109 -29 14 36 -124 74
-159 82 -174 76 -153 -3 9 -2 17 3 17 11 0 53 -81 91 -180 19 -47 39 -94 46
-105 15 -23 15 -67 -1 -62 -5 2 -25 40 -44 85 -18 45 -38 79 -42 76 -11 -7 -2
-48 23 -97 11 -21 17 -44 15 -50 -2 -7 -18 16 -36 51 -17 34 -36 62 -41 62 -6
0 -10 5 -10 10 0 6 -13 31 -30 58 -16 26 -30 42 -30 35 0 -16 20 -62 42 -94
21 -31 69 -161 62 -168 -10 -10 -34 27 -61 93 -15 38 -33 71 -40 73 -16 5 -7
-27 28 -106 28 -62 36 -92 22 -77 -5 4 -8 11 -9 14 0 4 -15 37 -32 74 -18 37
-32 70 -32 72 0 3 -22 43 -49 88 -27 46 -61 112 -76 148 -15 36 -29 67 -32 70
-10 9 9 -45 38 -108 16 -35 29 -66 29 -69 0 -3 11 -21 26 -40 14 -18 23 -33
20 -33 -3 0 17 -46 44 -101 46 -97 54 -134 25 -123 -7 3 -15 -1 -18 -9 -7 -18
51 -89 65 -81 7 5 8 2 3 -6 -6 -10 -3 -12 13 -8 15 4 22 2 22 -8 0 -23 -30
-28 -45 -8 -12 17 -13 16 -8 -9 3 -16 1 -27 -6 -27 -6 0 -11 7 -11 15 0 17
-57 126 -94 182 -14 21 -26 41 -26 46 0 4 -16 34 -36 65 -21 31 -37 59 -37 62
0 3 -3 15 -8 28 -5 13 -9 28 -9 33 0 5 -8 17 -17 27 -29 30 -133 225 -133 248
0 6 -7 17 -15 24 -8 7 -15 22 -15 34 0 11 -9 35 -20 51 -11 17 -20 37 -20 46
0 9 -7 23 -16 30 -9 8 -25 32 -34 54 -17 40 -17 40 9 65 14 14 35 38 46 54 12
16 28 29 36 29 9 0 16 6 16 14 0 7 -4 13 -8 13 -5 0 -6 7 -3 15 11 27 -18 16
-61 -24 -24 -22 -41 -42 -39 -44 3 -2 -4 -7 -16 -10 -23 -6 -26 3 -7 22 8 10
8 12 0 7 -6 -3 -15 -2 -18 4 -4 6 -1 9 6 8 6 -2 14 3 16 10 3 7 -4 12 -16 12
-12 0 -21 4 -21 9 0 9 33 52 78 101 12 14 39 44 60 67 36 40 55 41 44 0z m68
23 c0 -5 -2 -10 -4 -10 -3 0 -8 5 -11 10 -3 6 -1 10 4 10 6 0 11 -4 11 -10z
m-210 -63 c0 -2 -10 -12 -22 -23 l-23 -19 19 23 c18 21 26 27 26 19z m-440
-140 c0 -2 -10 -12 -21 -23 -22 -19 -22 -19 -8 4 12 19 29 30 29 19z m549 -10
c-2 -1 -13 -9 -24 -17 -19 -14 -19 -14 -6 3 7 9 18 17 24 17 6 0 8 -1 6 -3z
m-269 -17 c0 -5 -5 -10 -11 -10 -5 0 -7 5 -4 10 3 6 8 10 11 10 2 0 4 -4 4
-10z m94 2 c3 -5 -9 -19 -27 -32 -18 -14 -26 -17 -18 -7 7 9 10 17 6 17 -4 0
-2 7 5 15 14 17 26 19 34 7z m118 -44 c-7 -7 -12 -8 -12 -2 0 14 12 26 19 19
2 -3 -1 -11 -7 -17z m-262 -13 c-7 -9 -15 -13 -19 -10 -3 3 1 10 9 15 21 14
24 12 10 -5z m73 -37 c-2 -5 -11 -8 -18 -8 -12 0 -12 5 -3 26 11 23 13 24 19
7 3 -10 5 -21 2 -25z m162 23 c-3 -6 -11 -11 -17 -11 -6 0 -6 6 2 15 14 17 26
13 15 -4z m-74 -15 c-7 -8 -19 -12 -28 -9 -12 5 -11 9 8 19 28 15 37 10 20
-10z m-193 -112 c-12 -12 -17 -13 -23 -3 -5 8 -4 10 4 5 6 -4 14 0 17 9 4 9 9
13 12 10 3 -3 -1 -13 -10 -21z m7 -67 c-16 -24 -45 -44 -45 -30 0 10 53 64 58
59 2 -2 -4 -16 -13 -29z m-58 -41 c0 -7 -9 -18 -19 -25 -11 -7 -18 -7 -18 -1
0 5 5 10 10 10 6 0 10 7 10 15 0 8 4 15 8 15 5 0 9 -6 9 -14z m153 -41 c-9
-11 -9 -15 -1 -15 7 0 9 -4 6 -10 -3 -5 -11 -10 -16 -10 -6 0 -7 5 -4 10 3 6
1 10 -5 10 -6 0 -13 -6 -16 -14 -3 -8 -13 -17 -22 -20 -9 -3 1 10 22 29 41 37
57 46 36 20z m-220 -10 c-7 -9 -15 -13 -19 -10 -3 3 1 10 9 15 21 14 24 12 10
-5z m75 -135 c-3 -5 -12 -10 -18 -10 -7 0 -6 4 3 10 19 12 23 12 15 0z m-191
-125 c-4 -9 -16 -21 -28 -27 -19 -10 -19 -9 3 16 28 30 33 32 25 11z m-79 -85
c-10 -11 -20 -18 -23 -15 -3 3 3 14 13 25 10 11 20 18 23 15 3 -3 -3 -14 -13
-25z m-35 -44 c0 -3 -4 -8 -10 -11 -5 -3 -10 -1 -10 4 0 6 5 11 10 11 6 0 10
-2 10 -4z m910 -100 c17 -43 29 -85 27 -94 -2 -9 -7 0 -12 21 -4 21 -14 41
-21 44 -8 3 -23 25 -34 50 -23 53 -24 57 -9 47 8 -4 9 1 5 17 -12 42 11 -2 44
-85z m303 -161 c45 -9 32 -24 -14 -17 -17 2 -34 13 -41 26 -9 18 -9 19 3 9 8
-6 31 -14 52 -18z m-201 -47 c-6 -6 -16 -7 -22 -3 -9 6 -9 9 1 16 17 10 34 0
21 -13z m233 -98 c3 -6 -1 -13 -10 -16 -19 -8 -30 0 -20 15 8 14 22 14 30 1z"/>
<path d="M10423 6664 c-29 -28 -43 -48 -35 -51 6 -3 12 -9 12 -14 0 -4 -6 -6
-14 -3 -8 3 -23 -3 -34 -14 -26 -26 -6 -36 33 -16 15 8 32 14 38 14 6 0 24 15
39 33 30 34 38 58 13 37 -12 -10 -15 -10 -15 2 0 8 3 18 7 22 7 7 14 36 8 36
-2 0 -25 -21 -52 -46z"/>
<path d="M10500 6579 c0 -5 -4 -8 -8 -5 -5 3 -9 -1 -9 -9 0 -21 10 -19 25 5 7
12 8 20 2 20 -5 0 -10 -5 -10 -11z"/>
<path d="M10490 6467 c0 -14 30 -80 35 -75 3 2 -4 22 -15 44 -10 21 -19 35
-20 31z"/>
<path d="M10521 6460 c0 -8 4 -22 9 -30 12 -18 12 -2 0 25 -6 13 -9 15 -9 5z"/>
<path d="M10540 6401 c0 -6 4 -13 10 -16 6 -3 7 1 4 9 -7 18 -14 21 -14 7z"/>
<path d="M10580 6268 c0 -15 42 -112 67 -155 45 -78 35 -39 -16 63 -28 55 -51
96 -51 92z"/>
<path d="M10780 6086 c0 -14 52 -117 57 -112 2 2 -9 30 -26 62 -16 33 -30 55
-31 50z"/>
<path d="M10705 6005 c14 -33 31 -64 36 -70 13 -12 -40 106 -53 120 -5 6 2
-17 17 -50z"/>
<path d="M4422 8498 c-10 -4 0 -7 26 -7 23 -1 42 2 42 7 0 9 -45 9 -68 0z"/>
<path d="M4340 8479 c0 -5 5 -7 10 -4 6 3 10 8 10 11 0 2 -4 4 -10 4 -5 0 -10
-5 -10 -11z"/>
<path d="M5770 8469 c0 -6 5 -19 10 -29 8 -15 6 -21 -7 -28 -12 -7 -6 -11 27
-14 34 -3 47 1 62 16 17 18 24 36 14 36 -3 0 -16 -4 -31 -10 -22 -8 -30 -6
-51 15 -13 13 -24 19 -24 14z"/>
<path d="M4085 8450 c-3 -5 -2 -10 4 -10 5 0 13 5 16 10 3 6 2 10 -4 10 -5 0
-13 -4 -16 -10z"/>
<path d="M5160 8050 l-35 -7 38 -2 c20 0 37 4 37 9 0 6 -1 9 -2 9 -2 -1 -19
-5 -38 -9z"/>
<path d="M4330 8040 c0 -5 7 -7 15 -4 8 4 15 8 15 10 0 2 -7 4 -15 4 -8 0 -15
-4 -15 -10z"/>
<path d="M4970 8040 c-13 -8 -12 -10 3 -10 9 0 17 5 17 10 0 12 -1 12 -20 0z"/>
<path d="M4271 8024 c0 -11 3 -14 6 -6 3 7 2 16 -1 19 -3 4 -6 -2 -5 -13z"/>
<path d="M4450 8019 c0 -5 5 -7 10 -4 6 3 10 8 10 11 0 2 -4 4 -10 4 -5 0 -10
-5 -10 -11z"/>
<path d="M4020 7980 c-11 -8 -7 -10 18 -8 17 1 32 6 32 10 0 11 -32 10 -50 -2z"/>
<path d="M11344 7965 c-14 -13 -30 -22 -35 -19 -5 3 -9 0 -9 -5 0 -6 -6 -11
-13 -11 -12 0 -42 -39 -35 -46 6 -5 100 60 122 85 27 29 3 26 -30 -4z"/>
<path d="M4073 7936 c-61 -13 -53 -28 12 -22 48 4 106 24 80 27 -41 4 -55 4
-92 -5z"/>
<path d="M4200 7890 l-25 -8 27 -1 c15 -1 30 4 33 9 7 11 0 11 -35 0z"/>
<path d="M4083 7875 c-35 -6 -66 -15 -70 -20 -5 -4 5 -5 20 -1 16 4 48 9 70
13 23 3 44 7 46 9 11 10 -9 10 -66 -1z"/>
<path d="M3849 7866 c-2 -2 -32 -6 -66 -9 -34 -3 -70 -11 -80 -17 -14 -9 -8
-10 27 -4 25 5 94 7 154 7 100 -2 108 -1 93 14 -13 13 -21 14 -40 6 -18 -9
-28 -8 -36 0 -8 8 -11 7 -11 -3 0 -11 -3 -11 -12 -2 -12 12 -22 15 -29 8z"/>
<path d="M6976 7692 c-2 -1 -88 -5 -192 -7 -104 -2 -272 -7 -374 -11 -306 -11
-340 -11 -340 -2 0 5 -4 6 -10 3 -5 -3 -10 -1 -10 5 0 7 -15 10 -37 8 l-38 -3
-1 -95 c0 -52 3 -115 8 -139 4 -24 10 -69 12 -100 9 -113 31 -166 60 -142 7 6
16 8 19 4 4 -3 7 -2 7 4 0 6 15 13 33 16 17 3 41 7 52 10 35 8 119 18 168 19
26 0 50 5 53 9 3 5 10 7 15 4 5 -4 9 -2 9 4 0 6 23 9 55 7 30 -2 55 1 55 5 0
5 15 10 33 10 17 1 24 3 15 6 -25 6 -22 21 5 26 12 3 -32 2 -98 0 -66 -3 -118
-3 -115 0 5 5 29 8 215 22 98 8 100 20 2 18 l-82 -2 65 10 c35 6 67 14 70 18
3 5 32 13 65 17 33 4 63 9 68 10 4 1 19 2 33 3 17 1 23 5 18 14 -6 9 -5 9 8 0
8 -7 18 -10 21 -7 11 12 39 -5 31 -18 -14 -21 -10 -52 9 -80 18 -28 35 -32 49
-13 5 6 8 6 8 -2 0 -7 -7 -16 -16 -21 -18 -10 -20 -22 -5 -31 14 -9 -5 -82
-25 -97 -8 -7 -17 -29 -20 -50 -5 -37 -5 -38 9 -15 8 14 17 19 21 13 3 -6 2
-13 -4 -17 -6 -4 -5 -12 5 -21 8 -9 15 -27 15 -42 0 -21 2 -24 10 -12 8 13 10
12 10 -2 0 -10 -5 -18 -11 -18 -6 0 -8 -13 -5 -32 3 -18 2 -51 -1 -73 -6 -36
-7 -37 -13 -15 -6 24 -7 24 -11 -7 -3 -17 -3 -32 0 -31 17 1 18 -5 6 -39 -7
-21 -19 -38 -26 -38 -8 0 -15 -9 -16 -20 l-3 -20 9 20 c11 22 12 21 16 -12 1
-13 -2 -23 -6 -23 -5 0 -9 -7 -9 -15 0 -8 -7 -15 -15 -15 -9 0 -15 -9 -15 -22
0 -21 0 -21 15 -2 9 11 13 13 10 4 -2 -8 -6 -30 -9 -48 -6 -42 -15 -52 -27
-29 -6 9 -15 14 -21 11 -7 -5 -9 0 -6 14 4 12 2 22 -3 22 -5 0 -9 -3 -10 -7 0
-5 -2 -28 -5 -53 -3 -31 -2 -40 5 -31 5 8 7 20 5 26 -3 7 2 15 10 18 20 8 20
5 -4 -68 -11 -33 -18 -48 -16 -32 5 37 -10 44 -20 9 -8 -29 -9 -34 -20 -127
-3 -33 -12 -74 -19 -91 -8 -19 -9 -36 -4 -41 5 -5 4 -23 -2 -43 -6 -19 -10
-50 -10 -68 0 -19 -4 -30 -9 -27 -13 8 -13 -1 0 -25 11 -21 -6 -73 -21 -64
-14 8 -11 -40 3 -54 9 -9 9 -12 -3 -12 -11 0 -20 -23 -32 -82 -10 -46 -17 -94
-17 -106 0 -27 -19 -68 -20 -42 0 13 -1 13 -10 0 -13 -21 -12 -68 2 -72 8 -3
8 -25 -2 -86 -7 -44 -17 -79 -22 -76 -7 4 -10 -3 -10 -26 -1 -3 2 -18 6 -33 5
-21 4 -27 -5 -21 -9 5 -10 2 -6 -9 3 -9 2 -19 -4 -22 -5 -4 -7 -17 -5 -30 3
-14 1 -27 -4 -30 -5 -3 -8 -13 -7 -23 1 -25 -23 -83 -33 -77 -13 8 -18 -18 -8
-38 5 -10 8 -23 5 -30 -5 -16 24 -47 46 -47 10 0 26 -4 36 -10 21 -11 241 -22
240 -12 -5 33 2 41 30 36 38 -8 48 11 17 31 -25 16 -46 13 -46 -6 0 -5 -9 -19
-20 -31 -11 -12 -20 -16 -20 -10 0 7 -3 11 -7 11 -21 -3 -33 2 -33 16 0 8 5
15 10 15 6 0 10 -5 10 -12 0 -6 11 -1 25 12 13 12 22 27 18 33 -3 6 -1 7 5 3
6 -3 16 0 24 7 21 20 42 14 48 -13 4 -18 14 -26 33 -28 15 -2 27 1 27 7 0 6
-4 11 -9 11 -5 0 -11 9 -14 20 -3 11 -16 24 -30 29 -14 5 -28 14 -31 20 -3 5
-22 8 -42 6 -28 -2 -34 0 -32 13 2 10 13 18 26 20 12 2 22 8 22 13 0 5 4 9 10
9 5 0 7 -8 4 -17 -5 -17 -5 -17 6 0 6 9 19 17 29 17 16 0 18 -5 11 -35 -4 -19
-4 -33 0 -30 4 3 11 25 15 50 4 29 13 50 26 58 10 6 19 17 19 24 0 6 5 13 11
15 9 3 11 22 6 91 -2 25 -27 40 -27 15 0 -6 -3 -9 -6 -6 -7 8 17 88 27 88 4 0
5 9 2 19 -3 10 2 30 11 42 16 25 38 101 37 132 0 9 3 17 7 17 4 0 8 24 9 53
l2 52 -19 -35 c-10 -19 -22 -53 -25 -75 -4 -22 -13 -61 -20 -87 -7 -25 -11
-49 -8 -52 4 -3 1 -6 -5 -6 -6 0 -13 10 -15 23 l-4 22 -2 -22 c0 -13 -5 -23
-10 -23 -5 0 -7 -8 -4 -19 3 -11 -2 -21 -12 -25 -9 -3 -14 -2 -10 4 4 6 9 23
11 38 3 15 14 37 26 49 11 12 18 27 16 34 -3 9 -10 7 -23 -9 -21 -24 -35 -28
-35 -11 0 5 6 7 13 3 8 -6 8 -3 -1 9 -8 9 -11 21 -7 27 4 6 2 16 -3 23 -6 7
-9 31 -8 54 2 36 -1 43 -21 48 -13 3 -23 12 -23 21 0 8 4 13 9 10 11 -7 22 56
11 67 -4 5 -11 -5 -15 -23 -12 -55 -15 -26 -4 33 8 37 16 54 23 50 6 -4 5 0
-2 9 -10 13 -10 18 -1 24 8 5 9 3 4 -6 -6 -9 -4 -11 4 -6 7 5 10 14 7 21 -2 7
-1 30 4 51 5 22 11 57 14 79 3 22 11 74 17 115 6 41 12 85 14 97 2 12 6 26 9
32 3 5 1 11 -6 13 -9 3 -8 12 6 32 10 16 13 25 7 22 -7 -4 -11 1 -11 13 0 12
5 21 10 21 6 0 10 11 10 25 0 14 4 25 8 25 5 0 14 19 21 42 7 23 18 53 24 67
5 14 12 37 14 51 4 23 3 24 -9 7 -13 -18 -14 -17 -14 2 0 11 4 17 8 15 5 -3
16 13 26 35 13 27 22 37 29 30 6 -6 10 -5 11 3 1 28 11 58 33 99 25 47 26 50
28 76 1 16 2 16 18 1 15 -16 15 -20 1 -57 -9 -23 -13 -43 -8 -46 4 -2 5 -26 2
-52 l-5 -48 29 30 c16 17 25 33 20 36 -4 4 -4 9 2 13 5 3 12 0 15 -7 6 -16 -6
-39 -19 -38 -5 1 -10 -10 -12 -25 -6 -44 19 -23 54 47 18 35 35 73 39 84 4 11
9 15 12 8 2 -6 -3 -28 -11 -48 -23 -55 -19 -67 5 -15 12 25 22 69 24 98 3 38
9 58 22 68 17 12 17 13 1 14 -21 0 -24 16 -5 23 9 4 9 8 -1 15 -8 5 -13 18
-12 28 4 30 1 48 -7 41 -9 -10 -43 23 -43 43 0 9 -5 21 -11 27 -8 8 -3 19 18
40 54 55 33 88 -80 123 -39 13 -77 27 -83 31 -6 5 -13 7 -16 4 -8 -9 -125 -8
-139 0 -9 6 -7 12 6 22 17 12 13 13 -31 14 -27 1 -58 2 -69 3 -11 0 -29 -3
-40 -8 -18 -8 -19 -7 -4 8 9 10 38 19 70 21 40 4 49 3 34 -5 -15 -7 -2 -8 45
-5 59 4 63 3 40 -9 -22 -13 -17 -14 45 -9 90 6 104 11 35 12 -38 1 -50 4 -40
10 8 6 17 8 21 5 4 -2 11 1 14 7 5 7 -8 9 -44 5 -27 -3 -52 -2 -55 3 -3 4 44
8 105 8 71 1 107 -2 103 -9 -4 -6 1 -6 13 1 11 5 40 12 65 14 25 2 49 6 54 8
5 3 38 4 74 3 36 -1 163 -4 283 -7 131 -3 222 -9 230 -15 7 -6 28 -9 47 -7 79
10 142 4 148 -13 4 -13 -295 -14 -313 -1 -6 4 -39 6 -73 4 -50 -3 -62 0 -62
12 0 10 -6 13 -16 9 -9 -3 -43 -7 -77 -8 l-62 -1 50 -7 c48 -7 49 -7 11 -8
-22 -1 -36 -5 -32 -9 3 -4 56 -6 116 -5 83 2 110 -1 110 -10 0 -10 3 -9 9 1 5
8 14 10 22 5 8 -4 59 -9 114 -10 148 -4 256 -11 262 -18 6 -5 -29 -10 -49 -7
-4 0 -25 -6 -46 -13 -22 -8 -44 -11 -48 -8 -4 4 -4 2 -1 -4 5 -8 115 -11 137
-3 18 7 37 2 47 -11 19 -23 16 -28 -19 -28 -83 1 -131 -3 -124 -9 3 -4 36 -8
72 -9 86 -3 93 -6 86 -41 -5 -25 -4 -27 12 -14 14 12 16 12 11 -1 -4 -10 2
-14 22 -13 15 1 46 -5 68 -12 48 -17 78 -10 49 11 -10 8 -22 12 -26 10 -4 -2
-6 5 -5 16 1 18 3 18 24 5 30 -20 36 -19 23 6 -9 17 -8 23 7 34 15 11 18 27
17 93 -1 73 -5 86 -37 139 -46 76 -73 101 -90 84 -9 -10 -8 -11 8 -6 11 3 5
-2 -13 -12 -18 -11 -31 -21 -28 -24 3 -2 -13 -3 -35 -1 -24 3 -39 9 -39 18 0
7 -8 17 -17 22 -20 11 -46 5 -38 -8 3 -5 -65 -8 -152 -7 -126 2 -157 5 -155
15 2 11 -5 12 -30 6 -18 -4 -41 -7 -51 -6 -9 0 -15 -3 -13 -7 3 -4 -1 -8 -9
-8 -8 0 -12 4 -9 9 3 4 0 8 -5 8 -6 0 -11 -4 -11 -10 0 -5 -5 -10 -11 -10 -5
0 -7 6 -3 13 6 9 4 9 -8 -1 -13 -10 -17 -10 -22 3 -5 15 -36 21 -36 7 0 -4
-30 -3 -67 2 -38 5 -161 9 -275 9 -115 0 -208 2 -208 6 0 6 -78 9 -84 3z m639
-71 c-3 -6 -14 -11 -23 -11 -15 1 -15 2 2 15 21 16 32 13 21 -4z m123 12 c-10
-2 -26 -2 -35 0 -10 3 -2 5 17 5 19 0 27 -2 18 -5z m-430 -10 c-15 -2 -42 -2
-60 0 -18 2 -6 4 27 4 33 0 48 -2 33 -4z m681 -7 c-2 -2 -17 -6 -34 -9 l-30
-6 30 13 c26 12 47 13 34 2z m-982 -2 c-3 -3 -23 -8 -44 -10 -29 -3 -33 -2
-18 5 22 11 72 14 62 5z m171 -1 c-10 -2 -26 -2 -35 0 -10 3 -2 5 17 5 19 0
27 -2 18 -5z m735 0 c-7 -2 -19 -2 -25 0 -7 3 -2 5 12 5 14 0 19 -2 13 -5z
m-1028 -13 c-3 -5 -16 -10 -28 -9 -20 1 -20 2 3 9 14 4 26 8 28 9 2 1 0 -3 -3
-9z m911 -2 c5 -8 2 -9 -11 -4 -15 5 -16 4 -5 -9 11 -13 9 -15 -11 -16 -70 -4
-91 -4 -95 3 -3 5 -17 8 -32 9 l-27 1 25 7 c14 4 34 4 46 0 23 -8 72 -1 80 12
7 13 21 11 30 -3z m-561 -18 c4 -6 -6 -10 -22 -9 -25 0 -26 1 -8 9 11 5 21 9
22 9 1 1 5 -3 8 -9z m373 4 c-3 -3 -37 -7 -74 -9 -46 -3 -62 -1 -49 5 22 9
132 14 123 4z m-431 -10 c-3 -3 -12 -4 -19 -1 -8 3 -5 6 6 6 11 1 17 -2 13 -5z
m960 -40 c-3 -3 -12 -4 -19 -1 -8 3 -5 6 6 6 11 1 17 -2 13 -5z m42 -33 c11
-7 10 -10 -6 -15 -24 -8 -55 2 -47 15 7 11 35 11 53 0z m-1422 -37 c-3 -3 -12
-4 -19 -1 -8 3 -5 6 6 6 11 1 17 -2 13 -5z m-64 -21 c-7 -2 -19 -2 -25 0 -7 3
-2 5 12 5 14 0 19 -2 13 -5z m-156 -129 c-3 -3 -12 -4 -19 -1 -8 3 -5 6 6 6
11 1 17 -2 13 -5z m-134 -11 c-7 -2 -19 -2 -25 0 -7 3 -2 5 12 5 14 0 19 -2
13 -5z m817 -403 c0 -5 -4 -10 -10 -10 -5 0 -10 5 -10 10 0 6 5 10 10 10 6 0
10 -4 10 -10z m-190 -74 c0 -3 -4 -8 -10 -11 -5 -3 -10 -1 -10 4 0 6 5 11 10
11 6 0 10 -2 10 -4z m-194 -281 c-1 -14 -7 -30 -13 -36 -9 -9 -11 -7 -8 7 2
11 4 27 4 37 1 9 5 17 9 17 5 0 8 -11 8 -25z m-23 -92 c-7 -50 -13 -55 -13
-11 0 29 6 48 16 48 1 0 0 -17 -3 -37z m60 -281 c-7 -40 -29 -37 -24 4 4 36
11 48 21 37 4 -4 6 -23 3 -41z m-196 -284 c-3 -7 -5 -2 -5 12 0 14 2 19 5 13
2 -7 2 -19 0 -25z m-4 -38 c-3 -11 -7 -20 -9 -20 -2 0 -4 9 -4 20 0 11 4 20 9
20 5 0 7 -9 4 -20z"/>
<path d="M8205 7660 c-3 -4 6 -10 20 -12 14 -3 25 -2 25 2 0 11 -39 20 -45 10z"/>
<path d="M4352 7530 c0 -14 2 -19 5 -12 2 6 2 18 0 25 -3 6 -5 1 -5 -13z"/>
<path d="M4204 7525 c8 -8 17 -15 19 -15 3 0 7 7 11 15 4 11 -2 15 -20 15 -23
0 -24 -2 -10 -15z"/>
<path d="M9720 7531 c0 -6 4 -13 10 -16 6 -3 7 1 4 9 -7 18 -14 21 -14 7z"/>
<path d="M2495 7499 c-4 -6 -5 -12 -2 -15 2 -3 7 2 10 11 7 17 1 20 -8 4z"/>
<path d="M7396 7478 c3 -4 12 -8 20 -8 8 0 14 4 14 8 0 4 -9 8 -19 8 -11 0
-17 -4 -15 -8z"/>
<path d="M7467 7483 c-4 -3 -7 -11 -7 -17 0 -7 3 -7 8 0 4 7 16 14 27 17 19 5
19 5 -1 6 -11 0 -24 -2 -27 -6z"/>
<path d="M7498 7463 c7 -3 16 -2 19 1 4 3 -2 6 -13 5 -11 0 -14 -3 -6 -6z"/>
<path d="M7646 7462 c-3 -5 1 -9 9 -9 8 0 12 4 9 9 -3 4 -7 8 -9 8 -2 0 -6 -4
-9 -8z"/>
<path d="M7900 7420 c0 -5 9 -10 21 -10 11 0 17 5 14 10 -3 6 -13 10 -21 10
-8 0 -14 -4 -14 -10z"/>
<path d="M6798 7393 c7 -3 16 -2 19 1 4 3 -2 6 -13 5 -11 0 -14 -3 -6 -6z"/>
<path d="M10536 7375 c-11 -8 -15 -15 -9 -15 6 0 16 7 23 15 16 19 11 19 -14
0z"/>
<path d="M6688 7373 c6 -2 18 -2 25 0 6 3 1 5 -13 5 -14 0 -19 -2 -12 -5z"/>
<path d="M6734 7373 c3 -3 25 -8 48 -10 24 -3 40 -1 36 2 -4 4 -26 9 -48 10
-23 2 -39 1 -36 -2z"/>
<path d="M7966 7371 c9 -10 64 -9 64 1 0 5 -16 8 -35 6 -19 -1 -32 -4 -29 -7z"/>
<path d="M7744 7362 c4 -3 14 -7 22 -8 9 -1 13 0 10 4 -4 3 -14 7 -22 8 -9 1
-13 0 -10 -4z"/>
<path d="M5548 7350 c-15 -3 -39 -15 -53 -28 -15 -13 -37 -28 -51 -34 -13 -6
-24 -18 -24 -25 0 -8 -7 -21 -15 -30 -11 -11 -13 -19 -5 -27 10 -12 -22 -160
-50 -231 -7 -16 -14 -40 -16 -53 -3 -13 -11 -42 -19 -65 -7 -23 -17 -64 -21
-92 -6 -43 -34 -149 -59 -220 -6 -16 -5 -17 4 -5 19 26 12 -1 -15 -57 -14 -30
-22 -62 -19 -73 3 -10 1 -21 -5 -25 -5 -3 -10 -16 -10 -28 0 -18 2 -19 10 -7
8 12 10 11 10 -7 0 -13 -9 -32 -20 -43 -21 -21 -27 -50 -11 -50 16 0 -1 -42
-30 -72 -28 -27 -40 -56 -19 -43 12 8 13 3 0 -29 -5 -15 -6 -28 0 -31 5 -3 5
-17 0 -33 -5 -15 -12 -43 -15 -62 -10 -55 -12 -63 -20 -95 -4 -16 -10 -34 -14
-40 -3 -5 -7 -19 -8 -30 -7 -44 -25 -85 -39 -85 -8 0 -14 -10 -14 -24 0 -14
-4 -27 -9 -30 -8 -5 -15 -31 -27 -106 -3 -14 -10 -38 -16 -53 -6 -15 -8 -30
-4 -34 3 -3 7 2 7 13 1 10 5 -1 9 -26 10 -53 5 -76 -16 -84 -12 -4 -15 -2 -10
9 3 8 1 15 -4 15 -6 0 -10 -12 -10 -28 0 -15 -8 -38 -17 -51 -9 -14 -11 -21
-5 -17 12 7 17 -11 13 -42 -1 -8 3 -19 9 -27 6 -7 8 -25 4 -39 -5 -23 -3 -26
21 -26 19 0 26 -4 22 -14 -4 -10 7 -16 40 -21 24 -3 47 -4 50 -2 2 3 19 0 36
-7 32 -13 82 -15 93 -3 3 3 13 3 22 0 8 -4 13 -2 10 3 -5 8 24 14 84 17 9 1
15 5 12 8 -6 11 18 23 46 24 14 0 24 3 23 8 -2 4 -3 11 -3 16 0 5 -7 16 -15
25 -10 10 -16 35 -16 73 -1 53 -2 55 -14 33 l-13 -25 -4 30 c-2 17 0 52 4 79
8 51 2 77 -9 38 -3 -12 -9 -19 -14 -16 -5 3 -9 1 -9 -5 0 -5 -3 -17 -7 -27 -4
-12 -3 -15 5 -10 14 9 16 -13 2 -34 -8 -13 -10 -12 -10 4 0 16 -4 14 -22 -10
l-22 -28 -7 25 c-7 24 -7 24 -8 -3 -1 -39 -18 -35 -36 9 -12 29 -13 38 -3 45
7 4 18 6 25 4 7 -3 19 26 33 77 11 45 25 91 30 102 5 11 12 30 15 43 4 12 11
22 16 22 6 0 7 -6 3 -12 -5 -9 -4 -10 4 -3 6 6 13 22 16 37 2 15 8 33 12 39 4
7 17 39 29 73 12 34 28 61 36 61 7 0 18 16 24 35 5 19 13 40 16 45 3 6 12 31
19 58 7 26 17 50 21 53 5 3 9 13 9 24 0 10 7 20 15 24 8 3 15 11 15 18 0 9 -3
8 -10 -2 -8 -13 -10 -12 -10 3 0 35 -24 11 -46 -45 -3 -10 -10 -18 -14 -18
-15 0 1 64 30 125 15 33 34 79 41 103 7 23 18 47 26 53 15 13 18 43 4 35 -5
-4 -4 7 2 24 6 16 14 25 17 19 4 -5 6 7 5 28 -1 38 1 47 23 90 7 13 12 27 12
33 0 18 56 101 64 93 4 -4 4 0 1 8 -3 9 1 21 9 28 8 7 20 28 26 47 6 19 15 34
20 34 4 0 11 11 14 24 3 14 17 38 31 55 14 16 36 60 49 98 14 37 34 88 46 111
12 24 19 46 16 49 -3 3 -1 14 5 24 19 36 -34 83 -161 145 -63 30 -126 61 -140
68 -14 6 -37 9 -52 6z m-38 -831 c-7 -11 -14 -18 -17 -15 -8 8 5 36 17 36 7 0
7 -6 0 -21z m-24 -66 c-8 -41 -10 -50 -19 -73 -3 -8 -10 -28 -15 -45 -5 -16
-15 -29 -21 -27 -7 1 -10 -2 -6 -8 9 -15 -5 -54 -16 -43 -5 5 6 55 29 121 36
110 61 148 48 75z m39 -71 c-3 -14 -26 -69 -51 -123 -51 -112 -88 -212 -74
-204 6 4 10 12 10 19 0 7 7 21 15 32 15 21 2 -25 -58 -198 -18 -54 -31 -98
-27 -98 3 0 17 34 31 75 23 71 44 114 52 104 6 -6 -62 -219 -80 -254 -9 -16
-24 -39 -34 -50 -10 -11 -21 -33 -25 -50 -6 -22 -9 -25 -13 -12 -4 11 -13 -6
-25 -49 -12 -42 -22 -61 -27 -53 -4 8 -3 19 2 25 11 14 45 127 58 192 7 35 6
40 -5 31 -11 -9 -11 -5 -3 23 17 55 20 72 23 103 2 17 11 47 20 69 9 21 16 42
16 46 0 4 6 20 14 36 8 16 17 40 20 54 15 75 20 91 42 111 13 12 24 28 24 35
0 7 4 14 8 16 10 3 72 133 72 149 0 5 5 7 11 3 6 -3 8 -17 4 -32z m-209 -294
c-12 -40 -17 -50 -22 -46 -5 6 13 58 20 58 3 0 4 -6 2 -12z m127 -68 c-3 -12
-8 -19 -11 -16 -5 6 5 36 12 36 2 0 2 -9 -1 -20z m29 -12 c-8 -8 -9 -4 -5 13
4 13 8 18 11 10 2 -7 -1 -18 -6 -23z m-196 -80 c-6 -24 -17 -53 -24 -65 -6
-12 -12 -29 -12 -39 0 -20 -68 -195 -81 -208 -10 -11 23 110 38 140 6 10 17
48 26 84 19 80 45 143 56 136 4 -3 3 -25 -3 -48z m155 -31 c-10 -9 -11 -8 -5
6 3 10 9 15 12 12 3 -3 0 -11 -7 -18z m-462 -574 c0 -35 -1 -36 -10 -14 -5 14
-7 31 -5 38 10 24 16 13 15 -24z m241 -149 c0 -8 -5 -12 -10 -9 -6 4 -8 11 -5
16 9 14 15 11 15 -7z"/>
<path d="M5282 5695 c-7 -14 -12 -34 -11 -43 0 -9 7 1 15 22 16 45 13 59 -4
21z"/>
<path d="M6703 7353 c9 -2 23 -2 30 0 6 3 -1 5 -18 5 -16 0 -22 -2 -12 -5z"/>
<path d="M7398 7343 c7 -3 16 -2 19 1 4 3 -2 6 -13 5 -11 0 -14 -3 -6 -6z"/>
<path d="M10464 7313 c-23 -21 -54 -48 -70 -60 -15 -13 -25 -25 -22 -28 2 -3
16 5 30 17 14 13 46 42 72 66 26 23 44 42 39 42 -4 0 -27 -17 -49 -37z"/>
<path d="M3385 7310 c-18 -8 -17 -9 8 -9 15 -1 27 4 27 9 0 12 -8 12 -35 0z"/>
<path d="M6598 7313 c7 -3 16 -2 19 1 4 3 -2 6 -13 5 -11 0 -14 -3 -6 -6z"/>
<path d="M3400 7249 c-8 -5 -13 -9 -10 -10 3 0 13 -2 23 -4 9 -2 17 1 17 5 0
15 -15 19 -30 9z"/>
<path d="M4356 7225 c4 -10 0 -15 -12 -15 -15 0 -16 -2 -5 -9 7 -5 11 -13 8
-18 -8 -13 -77 -3 -77 11 0 6 -7 2 -15 -8 -10 -13 -26 -19 -50 -18 -19 1 -35
-3 -35 -8 0 -6 19 -11 43 -11 23 -1 34 -3 24 -6 -9 -2 -15 -9 -11 -14 3 -5 -1
-12 -10 -15 -8 -3 -13 -11 -10 -18 6 -16 129 -15 145 1 7 7 18 9 25 6 9 -3 14
2 14 16 0 24 18 28 26 6 8 -19 24 -20 24 -1 0 8 -7 16 -15 20 -8 3 -12 12 -9
21 4 10 0 15 -11 15 -14 0 -12 5 9 21 32 25 28 31 -24 36 -33 3 -39 1 -34 -12z
m31 -17 c-3 -8 -6 -5 -6 6 -1 11 2 17 5 13 3 -3 4 -12 1 -19z m-93 -87 c3 -5
-5 -11 -19 -13 -14 -3 -26 0 -29 8 -6 16 39 20 48 5z m63 3 c-3 -3 -12 -4 -19
-1 -8 3 -5 6 6 6 11 1 17 -2 13 -5z"/>
<path d="M3248 7193 c6 -2 18 -2 25 0 6 3 1 5 -13 5 -14 0 -19 -2 -12 -5z"/>
<path d="M4450 7195 c0 -2 9 -9 19 -14 14 -8 20 -7 25 4 4 11 -2 15 -19 15
-14 0 -25 -2 -25 -5z"/>
<path d="M1620 7169 c0 -5 5 -7 10 -4 6 3 10 8 10 11 0 2 -4 4 -10 4 -5 0 -10
-5 -10 -11z"/>
<path d="M4120 7110 c-13 -8 -12 -10 3 -10 9 0 17 5 17 10 0 12 -1 12 -20 0z"/>
<path d="M3958 7076 c-68 -16 -67 -24 1 -12 33 6 63 14 67 19 9 9 -9 7 -68 -7z"/>
<path d="M4490 7082 c0 -8 -9 -11 -24 -8 -31 6 -66 -3 -66 -16 0 -6 14 -8 30
-6 17 3 30 1 30 -4 0 -12 12 -9 34 7 16 12 17 18 8 27 -9 9 -12 9 -12 0z"/>
<path d="M4369 7066 c-2 -2 -42 -7 -89 -11 -47 -4 -89 -9 -94 -13 -24 -14
-176 -38 -186 -28 -7 7 -14 6 -22 -3 -10 -11 -10 -13 0 -7 6 4 12 3 12 -3 0
-5 -6 -12 -12 -14 -10 -4 -10 -6 -1 -6 6 -1 14 3 17 8 3 5 15 7 25 4 10 -3 28
0 40 6 13 8 21 8 21 2 0 -7 8 -7 23 -2 12 5 59 12 102 16 44 4 93 12 109 16
17 5 36 4 47 -1 11 -7 20 -7 24 0 6 10 -8 44 -16 36z"/>
<path d="M3655 7052 c-49 -7 -145 -38 -145 -45 0 -5 10 -5 21 -2 12 4 27 8 33
9 127 25 203 57 91 38z"/>
<path d="M3826 7044 c-26 -9 -46 -17 -44 -19 5 -5 108 25 108 31 0 6 -10 4
-64 -12z"/>
<path d="M3755 7020 c-3 -5 -1 -10 4 -10 6 0 11 5 11 10 0 6 -2 10 -4 10 -3 0
-8 -4 -11 -10z"/>
<path d="M4395 7020 c-16 -4 -59 -11 -95 -13 -85 -7 -144 -18 -150 -28 -3 -5
-15 -10 -25 -13 -40 -8 -65 -19 -65 -26 0 -5 -3 -15 -6 -23 -4 -12 0 -14 15
-10 12 3 21 10 21 15 0 5 -4 6 -10 3 -5 -3 -10 -2 -10 3 0 16 75 30 157 28 49
-1 83 3 91 11 23 22 91 38 104 25 9 -9 7 -12 -7 -12 -30 0 -95 -20 -95 -29 0
-11 124 0 131 11 4 7 9 6 13 -1 4 -6 12 -9 17 -6 15 10 10 25 -9 25 -13 0 -18
7 -18 22 1 25 -15 30 -59 18z"/>
<path d="M1500 7012 c0 -5 7 -15 15 -22 8 -7 15 -9 15 -6 0 4 -7 14 -15 22 -8
9 -15 11 -15 6z"/>
<path d="M3700 7010 c-9 -6 -10 -10 -3 -10 6 0 15 5 18 10 8 12 4 12 -15 0z"/>
<path d="M3655 6990 c-3 -5 -2 -10 4 -10 5 0 13 5 16 10 3 6 2 10 -4 10 -5 0
-13 -4 -16 -10z"/>
<path d="M6870 6935 c0 -14 2 -25 4 -25 2 0 6 11 8 25 3 14 1 25 -3 25 -5 0
-9 -11 -9 -25z"/>
<path d="M3915 6895 c-16 -7 -23 -14 -14 -14 8 -1 24 6 35 14 24 18 18 18 -21
0z"/>
<path d="M3973 6903 c9 -2 25 -2 35 0 9 3 1 5 -18 5 -19 0 -27 -2 -17 -5z"/>
<path d="M6875 6890 c3 -5 8 -10 11 -10 2 0 4 5 4 10 0 6 -5 10 -11 10 -5 0
-7 -4 -4 -10z"/>
<path d="M3235 6880 c-3 -5 -1 -10 4 -10 6 0 11 5 11 10 0 6 -2 10 -4 10 -3 0
-8 -4 -11 -10z"/>
<path d="M3328 6883 c7 -3 16 -2 19 1 4 3 -2 6 -13 5 -11 0 -14 -3 -6 -6z"/>
<path d="M3675 6870 c3 -5 8 -10 11 -10 2 0 4 5 4 10 0 6 -5 10 -11 10 -5 0
-7 -4 -4 -10z"/>
<path d="M3560 6850 c-97 -23 -221 -43 -276 -45 -34 -2 -81 -6 -105 -11 -63
-11 -61 -11 -91 -12 -16 -1 -28 -6 -28 -11 0 -10 143 -8 200 3 19 4 49 8 65
10 72 7 333 74 290 74 -11 0 -36 -4 -55 -8z"/>
<path d="M6791 6838 c-1 -16 4 -28 9 -28 12 0 12 8 0 35 -8 18 -9 17 -9 -7z"/>
<path d="M6829 6803 c-3 -16 -2 -44 2 -63 4 -27 7 -31 13 -17 5 9 5 28 2 41
-3 14 -2 28 4 31 15 9 12 35 -4 35 -7 0 -15 -12 -17 -27z"/>
<path d="M7057 6774 c4 -11 3 -15 -5 -10 -6 3 -13 2 -17 -4 -3 -5 -1 -10 5
-10 6 0 8 -5 4 -12 -5 -9 -2 -9 9 1 19 15 22 37 7 46 -6 4 -7 -1 -3 -11z"/>
<path d="M3008 6763 c-10 -2 -18 -8 -18 -13 0 -5 14 -4 30 1 45 16 36 25 -12
12z"/>
<path d="M2928 6743 c12 -2 30 -2 40 0 9 3 -1 5 -23 4 -22 0 -30 -2 -17 -4z"/>
<path d="M6771 6734 c0 -11 3 -14 6 -6 3 7 2 16 -1 19 -3 4 -6 -2 -5 -13z"/>
<path d="M6812 6710 c0 -19 2 -27 5 -17 2 9 2 25 0 35 -3 9 -5 1 -5 -18z"/>
<path d="M2712 6705 c-6 -14 -10 -25 -8 -25 2 0 11 11 20 25 9 14 13 25 8 25
-5 0 -14 -11 -20 -25z"/>
<path d="M10691 6641 c8 -55 64 -199 74 -189 12 12 -63 248 -78 248 -2 0 0
-27 4 -59z"/>
<path d="M10641 6677 c-1 -12 41 -108 45 -104 3 2 -7 28 -20 58 -14 30 -25 50
-25 46z"/>
<path d="M2317 6655 c-4 -11 -11 -30 -17 -42 -14 -34 -3 -28 15 8 9 17 14 36
12 42 -2 6 -6 3 -10 -8z"/>
<path d="M2340 6660 c0 -5 5 -10 11 -10 5 0 7 5 4 10 -3 6 -8 10 -11 10 -2 0
-4 -4 -4 -10z"/>
<path d="M2677 6653 c-4 -3 -7 -13 -7 -22 1 -13 3 -13 11 2 11 19 8 33 -4 20z"/>
<path d="M9979 6643 c-13 -16 -12 -17 4 -4 16 13 21 21 13 21 -2 0 -10 -8 -17
-17z"/>
<path d="M6820 6630 c0 -5 5 -10 11 -10 5 0 7 5 4 10 -3 6 -8 10 -11 10 -2 0
-4 -4 -4 -10z"/>
<path d="M7073 6625 c-3 -9 -3 -18 -1 -21 3 -3 8 4 11 16 6 23 -1 27 -10 5z"/>
<path d="M2153 6575 c-7 -23 -8 -35 -1 -35 9 0 25 40 19 49 -2 2 3 8 11 12 10
7 10 9 -3 9 -9 0 -20 -14 -26 -35z"/>
<path d="M2060 6580 c-6 -11 -8 -20 -6 -20 3 0 10 9 16 20 6 11 8 20 6 20 -3
0 -10 -9 -16 -20z"/>
<path d="M2125 6589 c-4 -6 -5 -12 -2 -15 2 -3 7 2 10 11 7 17 1 20 -8 4z"/>
<path d="M6992 6563 c-6 -20 -7 -32 -2 -27 10 10 25 64 18 64 -3 0 -10 -16
-16 -37z"/>
<path d="M2264 6548 c-9 -18 -24 -44 -32 -58 l-15 -25 21 20 c20 19 58 95 47
95 -2 0 -12 -15 -21 -32z"/>
<path d="M2025 6522 c-8 -20 -4 -21 29 -7 l29 12 -26 5 c-17 3 -28 0 -32 -10z"/>
<path d="M2130 6514 c0 -8 5 -12 10 -9 6 3 10 10 10 16 0 5 -4 9 -10 9 -5 0
-10 -7 -10 -16z"/>
<path d="M5636 6475 c-3 -9 -6 -22 -5 -28 0 -7 5 -1 10 12 5 13 8 26 5 28 -2
2 -6 -3 -10 -12z"/>
<path d="M7112 6430 c0 -14 2 -19 5 -12 2 6 2 18 0 25 -3 6 -5 1 -5 -13z"/>
<path d="M6716 6395 c-3 -9 -5 -29 -5 -43 1 -20 3 -17 9 13 8 43 7 57 -4 30z"/>
<path d="M2365 6382 c-31 -56 -66 -134 -63 -138 3 -2 15 20 28 49 13 28 30 60
38 69 8 9 12 22 10 28 -2 6 -8 2 -13 -8z"/>
<path d="M5586 6348 c-8 -24 -25 -68 -36 -98 -11 -30 -20 -62 -19 -70 0 -8 18
34 40 94 22 60 38 111 35 113 -2 2 -11 -15 -20 -39z"/>
<path d="M10810 6384 c0 -14 62 -173 79 -199 11 -19 11 -18 5 5 -9 36 -83 207
-84 194z"/>
<path d="M2560 6370 c0 -5 -15 -33 -34 -62 -43 -68 -99 -179 -93 -185 7 -7 96
146 134 230 7 15 8 27 3 27 -6 0 -10 -4 -10 -10z"/>
<path d="M2050 6340 c0 -5 5 -10 10 -10 6 0 10 5 10 10 0 6 -4 10 -10 10 -5 0
-10 -4 -10 -10z"/>
<path d="M6691 6264 c0 -11 3 -14 6 -6 3 7 2 16 -1 19 -3 4 -6 -2 -5 -13z"/>
<path d="M1890 6235 c-11 -13 -10 -14 4 -9 9 3 16 10 16 15 0 13 -6 11 -20 -6z"/>
<path d="M2130 6236 c0 -8 -6 -19 -14 -23 -17 -10 -56 -73 -56 -92 0 -7 10 -1
23 15 12 16 22 32 22 37 0 4 5 11 10 15 19 13 35 51 25 57 -6 3 -10 -1 -10 -9z"/>
<path d="M1990 6221 c-6 -12 -7 -21 -1 -21 10 0 24 30 17 37 -2 3 -9 -5 -16
-16z"/>
<path d="M7105 6220 c-3 -5 -1 -10 4 -10 6 0 11 5 11 10 0 6 -2 10 -4 10 -3 0
-8 -4 -11 -10z"/>
<path d="M6982 6200 c0 -14 2 -19 5 -12 2 6 2 18 0 25 -3 6 -5 1 -5 -13z"/>
<path d="M2269 6193 c-13 -16 -12 -17 4 -4 9 7 17 15 17 17 0 8 -8 3 -21 -13z"/>
<path d="M2383 6173 c-37 -47 -52 -75 -27 -48 24 27 66 85 60 85 -2 0 -17 -17
-33 -37z"/>
<path d="M1954 6157 c-22 -34 -79 -150 -88 -179 -4 -14 -12 -16 -45 -9 -2 1 4
12 13 26 17 26 38 75 32 75 -2 0 -19 -25 -37 -55 -19 -31 -40 -64 -47 -73 -11
-15 -12 -14 -2 6 7 15 7 22 0 22 -5 0 -10 -5 -10 -11 0 -10 -54 -124 -86 -182
-8 -15 -16 -45 -16 -67 0 -22 -4 -37 -9 -34 -5 3 -6 -3 -2 -12 4 -11 3 -15 -5
-10 -6 4 -16 -8 -23 -29 -7 -19 -16 -35 -21 -35 -11 0 -40 -59 -49 -100 -14
-68 -17 -76 -46 -125 -33 -56 -46 -95 -31 -95 5 0 7 -4 3 -10 -3 -5 -12 -7
-20 -3 -11 4 -15 -3 -15 -25 0 -36 36 -56 52 -28 5 9 14 16 21 16 9 0 8 -3 -1
-8 -7 -5 -10 -16 -6 -25 7 -20 20 -22 28 -4 3 6 4 -1 1 -18 -5 -27 -1 -32 35
-52 22 -12 42 -17 46 -12 8 14 24 11 24 -5 0 -13 20 -26 41 -26 5 0 9 11 9 25
0 18 4 23 15 19 8 -4 15 -14 15 -23 0 -14 2 -14 10 -1 9 13 14 7 11 -12 0 -5
2 -8 7 -8 4 0 20 -12 37 -26 16 -14 31 -21 33 -16 1 5 14 7 29 4 15 -3 23 -1
20 5 -3 5 -2 15 3 22 6 10 11 6 21 -15 8 -15 20 -30 28 -32 8 -3 11 0 7 7 -4
6 -1 13 6 16 8 3 14 24 15 51 2 26 8 53 15 61 10 12 9 17 -5 24 -9 6 -17 15
-17 21 0 7 4 7 14 -1 20 -17 45 -4 39 22 -4 21 -4 21 10 4 10 -12 17 -15 22
-7 4 6 -1 20 -11 31 -9 10 -15 20 -13 22 2 1 13 7 24 13 11 6 22 21 23 34 2
13 12 30 21 39 10 9 28 48 41 86 12 39 32 85 43 103 11 18 30 54 44 80 13 26
30 58 38 72 8 14 27 52 41 85 15 33 30 62 34 65 3 3 18 38 33 79 24 65 25 72
8 57 -11 -10 -29 -41 -41 -69 -12 -29 -40 -81 -61 -117 -21 -36 -48 -92 -59
-125 -11 -33 -29 -78 -40 -100 -10 -22 -44 -93 -74 -157 -56 -121 -81 -158
-46 -68 22 55 13 69 -12 18 -14 -29 -17 -31 -24 -14 -6 17 11 84 25 96 15 12
67 133 81 189 24 91 -5 47 -62 -94 -16 -42 -50 -106 -65 -125 -2 -2 -8 1 -12
8 -5 8 -17 -10 -35 -50 -22 -52 -29 -60 -37 -46 -6 10 -20 17 -34 16 -13 -1
-21 -6 -19 -10 3 -5 10 -6 15 -3 5 4 9 -1 9 -10 0 -9 -9 -19 -20 -22 -13 -3
-20 -14 -20 -29 0 -13 -5 -24 -12 -24 -9 0 -9 -3 0 -12 16 -16 15 -33 -4 -52
-20 -20 -41 -21 -24 -1 6 8 9 19 5 25 -10 17 -36 -9 -33 -33 3 -23 -28 -33
-49 -15 -19 16 -16 27 7 21 16 -4 19 -2 14 11 -3 9 -11 13 -17 9 -6 -4 -1 7
11 24 12 18 19 38 16 47 -4 12 0 16 15 16 12 0 21 6 21 16 0 8 -4 12 -10 9 -5
-3 -10 0 -10 7 0 7 -3 23 -6 36 -5 16 -2 22 9 22 8 0 17 -4 19 -9 5 -13 48
-24 48 -12 0 5 -16 15 -35 22 -29 11 -34 17 -29 34 4 11 13 27 21 36 7 9 13
20 12 25 -4 15 12 63 58 178 24 60 42 110 40 112 -9 9 -36 -34 -42 -65 -3 -18
-13 -47 -21 -64 -13 -24 -18 -27 -26 -16 -7 10 -8 8 -3 -8 7 -24 -10 -33 -18
-10 -2 6 -10 -8 -16 -32 -10 -33 -15 -41 -22 -30 -7 12 -10 12 -18 0 -6 -9
-10 -10 -16 -2 -4 7 0 22 8 34 7 12 17 34 20 48 4 14 16 38 28 54 12 15 23 39
24 54 1 14 5 38 9 54 6 18 4 27 -3 27 -17 0 21 49 37 50 7 0 11 4 8 9 -3 5 7
33 22 62 16 30 28 61 27 69 -1 8 4 22 10 30 7 8 15 30 19 49 3 19 18 49 32 68
14 18 24 38 22 43 -2 5 -12 -5 -24 -23z m-115 -235 c-5 -16 -23 -43 -39 -60
-16 -17 -31 -41 -35 -52 -3 -11 -13 -20 -21 -20 -8 0 -13 -4 -10 -8 7 -12 -30
-55 -43 -51 -9 3 -6 13 9 32 12 15 19 27 16 27 -13 0 58 107 87 133 40 34 48
34 36 -1z m-59 -168 c-18 -46 -29 -61 -50 -67 -24 -6 -26 16 -4 53 l15 25 -6
-25 -6 -25 20 25 c11 14 21 28 21 33 0 4 4 7 10 7 6 0 6 -9 0 -26z m-80 -38
c0 -2 -7 -7 -16 -10 -8 -3 -12 -2 -9 4 6 10 25 14 25 6z m26 -48 c-4 6 -2 12
3 12 18 0 12 -17 -14 -46 -21 -23 -31 -55 -26 -86 0 -5 -3 -8 -9 -8 -5 0 -10
-7 -10 -15 0 -8 -6 -15 -14 -15 -8 0 -21 -9 -29 -21 -8 -11 -18 -16 -21 -11
-3 5 3 21 14 35 11 14 20 28 20 32 0 4 14 36 30 72 27 58 32 64 47 52 12 -10
15 -10 9 -1z m44 -162 c0 -2 -9 -6 -20 -9 -11 -3 -20 -1 -20 4 0 5 9 9 20 9
11 0 20 -2 20 -4z m-250 -191 c0 -8 -4 -15 -10 -15 -5 0 -10 7 -10 15 0 8 5
15 10 15 6 0 10 -7 10 -15z m389 -117 c-3 -28 2 -40 15 -35 17 7 40 -16 28
-27 -4 -4 -8 -12 -8 -17 -1 -5 -2 -12 -3 -17 0 -4 -19 -6 -41 -4 -35 4 -40 2
-40 -17 0 -12 -4 -21 -9 -21 -5 0 -16 -3 -24 -6 -12 -4 -14 0 -10 14 3 11 13
22 22 25 12 3 22 22 30 53 7 27 18 52 24 56 16 10 18 10 16 -4z m-232 -80 c-3
-7 -5 -2 -5 12 0 14 2 19 5 13 2 -7 2 -19 0 -25z"/>
<path d="M6671 6134 c0 -11 3 -14 6 -6 3 7 2 16 -1 19 -3 4 -6 -2 -5 -13z"/>
<path d="M1815 6090 c-3 -5 -1 -10 4 -10 6 0 11 5 11 10 0 6 -2 10 -4 10 -3 0
-8 -4 -11 -10z"/>
<path d="M2037 6093 c-4 -3 -7 -13 -7 -20 0 -8 -11 -29 -24 -46 -34 -45 -88
-157 -76 -157 5 0 14 9 20 20 6 11 16 17 22 14 6 -4 8 -3 5 3 -7 11 19 83 32
93 10 7 43 91 38 96 -2 2 -7 1 -10 -3z"/>
<path d="M2392 6069 c-19 -30 -8 -34 12 -4 9 14 13 25 9 25 -5 0 -14 -9 -21
-21z"/>
<path d="M6660 6070 c0 -5 5 -10 11 -10 5 0 7 5 4 10 -3 6 -8 10 -11 10 -2 0
-4 -4 -4 -10z"/>
<path d="M1793 6048 c-24 -31 -26 -40 -6 -27 11 6 20 18 20 25 0 17 -2 17 -14
2z"/>
<path d="M2302 5994 c-23 -36 -42 -70 -42 -75 0 -5 -11 -33 -25 -62 -14 -29
-19 -43 -10 -32 16 19 127 235 122 235 -2 0 -22 -30 -45 -66z"/>
<path d="M5095 5989 c-4 -6 -5 -12 -2 -15 2 -3 7 2 10 11 7 17 1 20 -8 4z"/>
<path d="M2133 5929 c-17 -27 -39 -72 -48 -101 -10 -29 -26 -69 -36 -88 -27
-51 -60 -132 -56 -137 5 -4 56 102 110 227 22 52 46 103 54 112 9 9 13 21 12
27 -2 5 -18 -13 -36 -40z"/>
<path d="M6891 5930 c-1 -3 -4 -23 -6 -45 -4 -35 -3 -37 6 -15 5 13 8 33 6 45
-2 11 -5 18 -6 15z"/>
<path d="M6937 5900 c-3 -11 -1 -20 4 -20 5 0 9 9 9 20 0 11 -2 20 -4 20 -2 0
-6 -9 -9 -20z"/>
<path d="M11071 5900 c14 -31 19 -36 19 -24 0 6 -7 19 -16 30 -14 18 -14 18
-3 -6z"/>
<path d="M11090 5845 c1 -11 7 -33 15 -50 l14 -30 -3 38 c-4 41 -26 78 -26 42z"/>
<path d="M5421 5841 c-7 -5 -14 -20 -14 -35 -1 -14 -4 -26 -7 -26 -5 0 -11
-34 -13 -82 -1 -14 -5 -25 -8 -23 -3 2 -11 -24 -19 -58 -7 -34 -16 -66 -20
-72 -4 -5 -10 -23 -12 -38 -5 -23 -3 -26 6 -15 15 16 60 152 77 233 7 33 18
72 26 87 14 28 6 42 -16 29z"/>
<path d="M5046 5815 c-3 -9 -6 -22 -5 -28 0 -7 5 -1 10 12 5 13 8 26 5 28 -2
2 -6 -3 -10 -12z"/>
<path d="M6920 5823 c-1 -5 -3 -25 -6 -46 -6 -37 -5 -37 21 -27 24 9 26 8 21
-7 -5 -13 -4 -15 4 -7 14 14 21 74 8 74 -5 0 -12 -9 -15 -20 -8 -28 -21 -15
-15 15 2 15 0 25 -7 25 -6 0 -11 -3 -11 -7z"/>
<path d="M1906 5783 c-6 -14 -5 -15 5 -6 7 7 10 15 7 18 -3 3 -9 -2 -12 -12z"/>
<path d="M5035 5760 c-4 -6 -11 -7 -17 -4 -7 4 -8 2 -4 -5 6 -9 11 -9 22 0 14
11 18 19 10 19 -3 0 -8 -5 -11 -10z"/>
<path d="M1815 5650 c3 -5 8 -10 11 -10 2 0 4 5 4 10 0 6 -5 10 -11 10 -5 0
-7 -4 -4 -10z"/>
<path d="M10620 5560 c1 -8 7 -24 15 -34 8 -11 22 -44 30 -74 11 -36 20 -51
26 -45 7 7 6 22 -4 44 -23 54 -67 125 -67 109z"/>
<path d="M5387 5483 c3 -7 6 -13 8 -13 2 0 5 6 8 13 3 8 -1 14 -8 14 -7 0 -11
-6 -8 -14z"/>
<path d="M1517 5453 c-10 -9 -9 -23 2 -23 5 0 11 7 15 15 5 15 -5 20 -17 8z"/>
<path d="M1815 5390 c-3 -6 1 -7 9 -4 18 7 21 14 7 14 -6 0 -13 -4 -16 -10z"/>
<path d="M1897 5376 c-15 -22 -15 -25 0 -38 14 -11 15 -11 11 2 -3 8 -1 25 3
38 11 29 5 28 -14 -2z"/>
<path d="M5205 5390 c3 -5 8 -10 11 -10 2 0 4 5 4 10 0 6 -5 10 -11 10 -5 0
-7 -4 -4 -10z"/>
<path d="M2070 5193 c0 -11 -5 -24 -11 -30 -14 -14 -3 -34 15 -27 7 3 18 -7
24 -21 16 -35 35 -33 20 3 -7 15 -15 31 -20 37 -4 5 -8 17 -8 26 0 10 -4 21
-10 24 -5 3 -10 -2 -10 -12z"/>
<path d="M1978 5033 c7 -3 16 -2 19 1 4 3 -2 6 -13 5 -11 0 -14 -3 -6 -6z"/>
</g>
</svg>
